<?xml version="1.0" standalone="no"?><!DOCTYPE svg PUBLIC "-//W3C//DTD SVG 1.1//EN" "http://www.w3.org/Graphics/SVG/1.1/DTD/svg11.dtd"><svg t="1740466939962" class="icon" viewBox="0 0 1024 1024" version="1.1" xmlns="http://www.w3.org/2000/svg" p-id="37680" xmlns:xlink="http://www.w3.org/1999/xlink" width="200" height="200"><path d="M186.464 914.848a338.768 29.152 0 1 0 677.536 0 338.768 29.152 0 1 0-677.536 0Z" fill="#D72F00" p-id="37681"></path><path d="M310.816 310.576q-166.688 349.84-92.64 479.712c74.064 129.856 174.688 124.56 227.616 135.152 52.944 10.608 116.464 5.312 227.616-21.2 111.152-26.496 222.32-140.464 169.376-291.52-52.928-151.072-84.688-257.088-23.808-341.904q-109.232 48.88-108.256 167.232c0.064 8.464-11.984 12.576-16.64 5.52q-48.24-72.992-68.32-106.48C601.952 297.312 580.768 207.2 594 80 464.32 117.104 400.8 278.768 400.8 355.632s-21.168 137.808-44.992 137.808q-23.824 0-44.992-182.864z" fill="#E9541F" p-id="37682"></path><path d="M366.4 657.76c-63.504 53.008-66.176 108.672-47.616 145.76 18.544 37.12 55.584 100.72 182.624 113.984 127.04 13.248 230.256-39.76 243.488-201.44-34.4 31.808-29.12 37.12-55.568 47.712 15.872-34.448-5.296-190.816-42.352-270.32q-37.056-79.52-97.92-177.584-26.464 177.584-84.688 238.528 0-29.152-29.12-60.96-5.312 111.328-68.832 164.32z" fill="#E9841D" p-id="37683"></path><path d="M432.592 808.832c-13.232 66.256 42.352 111.312 92.64 111.312 50.272 0 82.048-23.84 95.28-98.064q13.232-74.208-55.584-227.92 0 60.96-39.696 98.064c-39.696 37.104-79.408 50.352-92.64 116.608z" fill="#F1E600" p-id="37684"></path><path d="M324.096 379.488a13.248 13.232 90 1 0 26.464 0 13.248 13.232 90 1 0-26.464 0Z" fill="#F1B100" p-id="37685"></path><path d="M350.56 427.184a7.952 7.936 90 1 0 15.872 0 7.952 7.936 90 1 0-15.872 0Z" fill="#F1B100" p-id="37686"></path><path d="M747.552 262.864a7.952 7.936 90 1 0 15.872 0 7.952 7.936 90 1 0-15.872 0Z" fill="#F1B100" p-id="37687"></path><path d="M652.272 337.072a7.952 7.936 90 1 0 15.872 0 7.952 7.936 90 1 0-15.872 0Z" fill="#F1B100" p-id="37688"></path><path d="M689.328 390.08a7.952 7.936 90 1 0 15.872 0 7.952 7.936 90 1 0-15.872 0Z" fill="#F1B100" p-id="37689"></path><path d="M758.144 660.416a7.952 7.936 90 1 0 15.872 0 7.952 7.936 90 1 0-15.872 0Z" fill="#F1B100" p-id="37690"></path><path d="M848.128 554.4a7.952 7.936 90 1 0 15.872 0 7.952 7.936 90 1 0-15.872 0Z" fill="#F1B100" p-id="37691"></path><path d="M848.128 856.544a7.952 7.936 90 1 0 15.872 0 7.952 7.936 90 1 0-15.872 0Z" fill="#F1B100" p-id="37692"></path><path d="M170.576 583.552a10.608 10.592 90 1 0 21.184 0 10.608 10.592 90 1 0-21.184 0Z" fill="#F1B100" p-id="37693"></path><path d="M160 623.312a7.952 7.936 90 1 0 15.872 0 7.952 7.936 90 1 0-15.872 0Z" fill="#F1B100" p-id="37694"></path></svg>