<?xml version="1.0" standalone="no"?><!DOCTYPE svg PUBLIC "-//W3C//DTD SVG 1.1//EN" "http://www.w3.org/Graphics/SVG/1.1/DTD/svg11.dtd"><svg t="1763198392196" class="icon" viewBox="0 0 1024 1024" version="1.1" xmlns="http://www.w3.org/2000/svg" p-id="4970" xmlns:xlink="http://www.w3.org/1999/xlink" width="200" height="200"><path d="M960.19 512.13c0-247.71-200.93-447.99-447.98-447.99-247.71 0-447.99 200.28-447.99 447.99s200.93 447.99 447.99 447.99c101.45 0 194.35-34.92 270.11-91.58 3.29-3.29 5.27-7.9 5.27-13.17 0-11.2-8.56-19.76-19.76-19.76-5.93 0-10.54 1.97-14.49 5.93-67.2 49.41-150.21 79.06-239.8 79.06-223.99 0-405.83-181.83-405.83-405.82s181.83-405.83 405.83-405.83 405.82 181.83 405.82 405.83c0 68.51-15.81 133.08-46.11 189.74v0.66c-0.66 1.98-1.32 3.95-1.32 5.93 0 11.2 9.22 19.76 19.76 19.76 8.56 0 15.81-5.27 18.45-13.18 30.94-61.95 50.05-131.78 50.05-205.56z m0 0" fill="#11e195" p-id="4971"></path><path d="M347.47 581.73l-26.08 55.3c-2.13 4.49-4.24 8.82-6.36 12.99-2.13 4.17-4.56 8.02-7.31 11.54-2.76 3.53-5.94 6.33-9.54 8.42-3.61 2.08-7.74 3.12-12.4 3.12-8.49 0-15.06-2.01-19.72-6.01-4.67-4.01-4.67-11.46 0-22.36L399.63 350.9c2.12-5.12 5.82-9.21 11.13-12.26 5.3-3.04 12.18-4.57 20.67-4.57 8.9 0 16.11 1.53 21.62 4.57 5.51 3.05 9.32 7.14 11.45 12.26l134.2 294.8c3.39 7.69 3.6 14.19 0.64 19.48-2.97 5.29-9.97 7.93-20.99 7.93-7.22 0.32-13.04-1.2-17.49-4.57-4.45-3.37-7.74-7.77-9.86-13.23l-34.98-73.58H347.47z m157.1-33.66l-72.51-164.95-72.51 164.95h145.02zM715.09 654.83c0 12.18-8.49 18.27-25.44 18.27-16.12 0-24.17-5.94-24.17-17.79V351.86c0-11.86 8.05-17.79 24.17-17.79 8.48 0 14.84 1.37 19.08 4.09 4.23 2.73 6.36 7.3 6.36 13.71v302.96z" fill="#11e195" p-id="4972"></path></svg>