<?xml version="1.0" standalone="no"?><!DOCTYPE svg PUBLIC "-//W3C//DTD SVG 1.1//EN" "http://www.w3.org/Graphics/SVG/1.1/DTD/svg11.dtd"><svg t="1739644406515" class="icon" viewBox="0 0 1106 1024" version="1.1" xmlns="http://www.w3.org/2000/svg" p-id="110282" xmlns:xlink="http://www.w3.org/1999/xlink" width="216.015625" height="200"><path d="M1067.018412 472.74526H39.25474a39.25474 39.25474 0 0 0 0 78.474306h1027.798846a39.993405 39.993405 0 0 0 39.887881-39.25474 40.415499 40.415499 0 0 0-39.923055-39.219566z m-41.154164 196.977191a39.993405 39.993405 0 0 0-39.887881 39.254741v196.977191a39.571311 39.571311 0 0 1-39.887881 39.25474h-237.251992a39.993405 39.993405 0 0 0-39.887882 39.254741 39.571311 39.571311 0 0 0 39.887882 39.25474h237.322341a118.573234 118.573234 0 0 0 118.362187-118.362187v-196.977192a38.340203 38.340203 0 0 0-38.691948-38.691948z m-672.079142 275.170102H156.315471a39.993405 39.993405 0 0 1-39.887881-39.25474v-196.977192a39.887881 39.887881 0 0 0-79.740588 0v196.977192a118.573234 118.573234 0 0 0 118.362187 118.221489h197.469635a39.993405 39.993405 0 0 0 39.887881-39.25474 37.882935 37.882935 0 0 0-38.621599-39.712009zM77.208024 354.418247A39.993405 39.993405 0 0 0 117.095905 315.163506v-196.977191a39.571311 39.571311 0 0 1 39.887882-39.25474h197.469634a39.993405 39.993405 0 0 0 39.887882-39.254741A39.571311 39.571311 0 0 0 354.453421 0.422094H156.315471a118.573234 118.573234 0 0 0-118.362187 118.362187v196.977192a38.129156 38.129156 0 0 0 39.25474 38.656774z m632.226436-275.3108h237.322341a39.993405 39.993405 0 0 1 39.887882 39.25474v196.977192a39.571311 39.571311 0 0 0 39.887881 39.25474 39.993405 39.993405 0 0 0 39.887881-39.25474v-196.977192A118.573234 118.573234 0 0 0 948.058258 0h-237.357516a39.993405 39.993405 0 0 0-39.887881 39.25474 38.691948 38.691948 0 0 0 38.656774 39.852707z" fill="#11e195" p-id="110283"></path><path d="M789.843364 790.44133H316.429788a57.791701 57.791701 0 0 1-57.580654-57.580654V291.104149a57.791701 57.791701 0 0 1 57.580654-57.580654h473.378401a57.791701 57.791701 0 0 1 57.580654 57.580654v441.756527a57.791701 57.791701 0 0 1-57.545479 57.580654z" fill="#11e195" p-id="110284"></path></svg>