<?xml version="1.0" standalone="no"?><!DOCTYPE svg PUBLIC "-//W3C//DTD SVG 1.1//EN" "http://www.w3.org/Graphics/SVG/1.1/DTD/svg11.dtd"><svg t="1739526065585" class="icon" viewBox="0 0 1024 1024" version="1.1" xmlns="http://www.w3.org/2000/svg" p-id="3749" xmlns:xlink="http://www.w3.org/1999/xlink" width="200" height="200"><path d="M328.181744 0h367.604513c114.140433 0 155.51514 11.871629 197.209837 34.206931a232.63273 232.63273 0 0 1 96.764976 96.764976C1012.128371 172.666604 1023.968001 214.041311 1023.968001 328.181744v367.604513c0 114.140433-11.871629 155.51514-34.206931 197.209837a232.63273 232.63273 0 0 1-96.764976 96.764976C851.301397 1012.128371 809.92669 1023.968001 695.786257 1023.968001H328.181744c-114.140433 0-155.51514-11.871629-197.209837-34.206931a232.63273 232.63273 0 0 1-96.764976-96.764976C11.83963 851.301397 0 809.92669 0 695.786257V328.181744c0-114.140433 11.871629-155.51514 34.206931-197.209837a232.63273 232.63273 0 0 1 96.764976-96.764976C172.666604 11.83963 214.041311 0 328.181744 0z" fill="#0FB269" p-id="3750"></path><path d="M415.987 799.975001a31.999 31.999 0 1 1 0 63.998 31.999 31.999 0 0 1 0-63.998z m255.992001 0a31.999 31.999 0 1 1 0 63.998 31.999 31.999 0 0 1 0-63.998zM220.377113 220.249117A95.997 95.997 0 0 1 312.150245 287.991H780.135621a63.998 63.998 0 0 1 61.75807 80.829474l-61.11809 223.993001A63.998 63.998 0 0 1 719.113528 639.980001h-358.708791l4.351864 32.478985a31.999 31.999 0 0 0 28.063123 27.551139l3.647886 0.223993h374.324303v63.998H396.46761a95.997 95.997 0 0 1-94.205056-77.661573l-0.95997-5.663823L252.120121 312.022249a31.999 31.999 0 0 0-28.063123-27.583138l-3.647886-0.191994H180.410362v-63.998h39.99875z" fill="#FFFFFF" p-id="3751"></path></svg>