<?xml version="1.0" standalone="no"?><!DOCTYPE svg PUBLIC "-//W3C//DTD SVG 1.1//EN" "http://www.w3.org/Graphics/SVG/1.1/DTD/svg11.dtd"><svg t="1739526340848" class="icon" viewBox="0 0 1024 1024" version="1.1" xmlns="http://www.w3.org/2000/svg" p-id="17422" xmlns:xlink="http://www.w3.org/1999/xlink" width="200" height="200"><path d="M273.536 643.157333c0-0.256 241.621333-241.621333 241.621333-241.621333 0 0.256-241.621333 241.621333-241.621333 241.621333z m-30.165333-30.165333a42.453333 42.453333 0 0 0 0.128 60.202667c16.64 16.64 43.946667 16.426667 60.202666 0.128l241.621334-241.621334a42.453333 42.453333 0 0 0-0.128-60.16 42.837333 42.837333 0 0 0-60.16-0.170666l-241.664 241.621333z" fill="#01c335" p-id="17423"></path><path d="M771.157333 643.157333c0-0.256-241.621333-241.621333-241.621333-241.621333 0 0.256 241.621333 241.621333 241.621333 241.621333z m30.165334-30.165333l-241.621334-241.621333a42.837333 42.837333 0 0 0-60.16 0.128 42.453333 42.453333 0 0 0-0.170666 60.202666l241.621333 241.621334c16.298667 16.298667 43.52 16.554667 60.202667-0.128a42.453333 42.453333 0 0 0 0.128-60.16z" fill="#01c335" p-id="17424"></path></svg>