<?xml version="1.0" standalone="no"?><!DOCTYPE svg PUBLIC "-//W3C//DTD SVG 1.1//EN" "http://www.w3.org/Graphics/SVG/1.1/DTD/svg11.dtd"><svg t="1739526215926" class="icon" viewBox="0 0 1024 1024" version="1.1" xmlns="http://www.w3.org/2000/svg" p-id="13048" xmlns:xlink="http://www.w3.org/1999/xlink" width="200" height="200"><path d="M492.8 377.6h-384c-19.2 0-32 12.8-32 25.6s12.8 25.6 32 25.6h384c19.2 0 32-12.8 32-25.6-6.4-12.8-19.2-25.6-32-25.6z m0 0M492.8 595.2h-384c-19.2 0-32 12.8-32 25.6s12.8 25.6 32 25.6h384c19.2 0 32-12.8 32-25.6-6.4-12.8-19.2-25.6-32-25.6z m0 0M492.8 812.8h-384c-19.2 0-32 12.8-32 25.6s12.8 25.6 32 25.6h384c19.2 0 32-12.8 32-25.6-6.4-12.8-19.2-25.6-32-25.6z m0 0M108.8 211.2h774.4c19.2 0 32-12.8 32-25.6s-12.8-25.6-32-25.6H108.8c-19.2 0-32 12.8-32 25.6s12.8 25.6 32 25.6z m0 0M921.6 684.8h-96v-320c0-19.2-12.8-32-25.6-32s-25.6 12.8-25.6 32v320h-96c-12.8 0-19.2 6.4-25.6 6.4 0 0 0 6.4 6.4 19.2l102.4 128c6.4 12.8 19.2 19.2 32 19.2s19.2-6.4 32-19.2l102.4-128c6.4-12.8 6.4-19.2 6.4-19.2 6.4-6.4 0-6.4-12.8-6.4z m0 0" p-id="13049" fill="#009436"></path></svg>