<?xml version="1.0" standalone="no"?><!DOCTYPE svg PUBLIC "-//W3C//DTD SVG 1.1//EN" "http://www.w3.org/Graphics/SVG/1.1/DTD/svg11.dtd"><svg t="1739437876473" class="icon" viewBox="0 0 1024 1024" version="1.1" xmlns="http://www.w3.org/2000/svg" p-id="5326" xmlns:xlink="http://www.w3.org/1999/xlink" width="200" height="200"><path d="M102.4 0h819.2c56.32 0 102.4 46.08 102.4 102.4v819.2c0 56.32-46.08 102.4-102.4 102.4H102.4c-56.32 0-102.4-46.08-102.4-102.4V102.4c0-56.32 46.08-102.4 102.4-102.4z" fill="#FEF7E4" p-id="5327"></path><path d="M737.28 266.24m-120.32 0a120.32 120.32 0 1 0 240.64 0 120.32 120.32 0 1 0-240.64 0Z" fill="#F3DFA2" p-id="5328"></path><path d="M921.6 0H102.4C46.08 0 0 46.08 0 102.4v819.2c0 56.32 46.08 102.4 102.4 102.4h819.2c56.32 0 102.4-46.08 102.4-102.4V102.4c0-56.32-46.08-102.4-102.4-102.4zM102.4 25.6h819.2c43.52 0 76.8 33.28 76.8 76.8v762.88L791.04 691.2l-168.96 138.24-307.2-327.68L25.6 816.64V102.4c0-43.52 33.28-76.8 76.8-76.8z" fill="#F3DFA2" p-id="5329"></path></svg>