<?xml version="1.0" standalone="no"?><!DOCTYPE svg PUBLIC "-//W3C//DTD SVG 1.1//EN" "http://www.w3.org/Graphics/SVG/1.1/DTD/svg11.dtd"><svg t="1740480315430" class="icon" viewBox="0 0 1561 1024" version="1.1" xmlns="http://www.w3.org/2000/svg" p-id="58504" xmlns:xlink="http://www.w3.org/1999/xlink" width="304.8828125" height="200"><path d="M156.16 699.763h21.03a10.432 10.432 0 0 1 10.202 10.445c0 5.76-4.48 10.445-10.202 10.445h-21.03v21.094a10.432 10.432 0 0 1-10.406 10.24 10.227 10.227 0 0 1-10.42-10.24V720.64h-21.03a10.432 10.432 0 0 1-10.202-10.445c0-5.76 4.48-10.445 10.202-10.445h21.03v-21.094c0.128-5.683 4.736-10.24 10.42-10.24 5.747 0 10.406 4.506 10.406 10.24v21.107z m1374.208-83.558V595.11a10.291 10.291 0 0 0-10.406-10.24 10.432 10.432 0 0 0-10.42 10.24v21.095h-21.03a10.24 10.24 0 0 0-10.202 10.445c0 5.593 4.583 10.444 10.202 10.444h21.03v21.095c0 5.747 4.672 10.24 10.42 10.24a10.432 10.432 0 0 0 10.406-10.24v-21.095h21.03a10.266 10.266 0 0 0 10.202-10.444 10.432 10.432 0 0 0-10.202-10.445h-21.03zM773.965 960.858h-524.16a20.757 20.757 0 0 1-14.72-6.106 20.915 20.915 0 0 1 14.707-35.66h94.426a83.213 83.213 0 0 1-11.072-41.678V271.45a83.528 83.528 0 0 1 24.448-59.072 83.085 83.085 0 0 1 58.918-24.384h62.374v-20.992a83.629 83.629 0 0 1 24.448-59.06 83.085 83.085 0 0 1 58.932-24.384h499.532a83.046 83.046 0 0 1 58.944 24.372 83.584 83.584 0 0 1 24.436 59.072v605.964a83.251 83.251 0 0 1-11.098 41.677h115.174c11.52 0 20.852 9.28 20.852 20.89 0 11.52-9.268 20.89-20.826 20.89H999.424v20.991a83.251 83.251 0 0 1-11.098 41.677h11.162c11.456 0 20.762 9.267 20.762 20.877 0 11.533-9.434 20.89-20.762 20.89H889.946a41.754 41.754 0 0 1-6.4 50.867 41.472 41.472 0 0 1-58.88 0l-50.688-50.867z m76.134-41.767h66.202c22.912 0 41.472-18.598 41.472-41.881V270.464c0-22.566-17.984-40.704-40.18-40.704H414.977c-22.195 0-40.18 18.227-40.18 40.704V877.21c0 23.116 18.74 41.881 41.46 41.881h316.032l-10.7-10.752a41.78 41.78 0 0 1-10.817-40.384l-19.66-19.737a145.46 145.46 0 0 1-197.261-21.581c-49.984-57.895-46.976-144.666 6.886-198.938 54.029-54.4 140.8-57.6 198.656-7.321 57.869 50.265 67.11 136.883 21.158 198.297l19.674 19.738a41.408 41.408 0 0 1 40.256 10.841l69.606 69.837z m149.325-104.448h62.656a41.728 41.728 0 0 0 41.446-41.779v-605.76c0-23.142-18.56-41.78-41.446-41.78H561.971a41.728 41.728 0 0 0-41.433 41.78v20.89h395.52a83.046 83.046 0 0 1 58.93 24.37 83.584 83.584 0 0 1 24.436 59.086v543.193zM265.472 47.002h31.027c8.743 0 15.821 6.95 15.821 15.667a15.744 15.744 0 0 1-15.82 15.667h-31.028v31.104c0 8.78-6.938 15.872-15.616 15.872a15.693 15.693 0 0 1-15.616-15.872V78.336h-31.027a15.654 15.654 0 1 1 0-31.334h31.027v-31.13C234.24 7.104 241.178 0 249.856 0c8.614 0 15.616 7.104 15.616 15.872v31.13zM20.826 939.968c0-11.52 9.433-20.877 20.748-20.877H166.63c11.456 0 20.762 9.267 20.762 20.877 0 11.533-9.434 20.89-20.762 20.89H41.574a20.772 20.772 0 0 1-14.707-6.106 20.838 20.838 0 0 1-6.041-14.784zM677.44 804.954a104.691 104.691 0 0 0 26.957-100.903 104.294 104.294 0 0 0-73.626-73.856A103.898 103.898 0 0 0 530.19 657.23c-40.653 40.793-40.653 106.931 0 147.712a103.885 103.885 0 0 0 147.251 0zM458.074 313.318c0-11.52 9.305-20.864 20.8-20.876H707.93c11.494 0 20.812 9.344 20.812 20.876a20.864 20.864 0 0 1-20.812 20.89H478.886a20.736 20.736 0 0 1-14.732-6.093 20.864 20.864 0 0 1-6.08-14.797z m0 104.448c0-11.52 9.267-20.89 20.672-20.89h333.44a20.736 20.736 0 0 1 20.672 20.89c0 11.52-9.268 20.89-20.685 20.89h-333.44a20.8 20.8 0 0 1-20.672-20.89z m0 104.448c0-11.532 9.28-20.89 20.774-20.89h145.83c11.482 0 20.788 9.268 20.788 20.878 0 11.532-9.293 20.89-20.788 20.89h-145.83a20.672 20.672 0 0 1-14.72-6.106 20.838 20.838 0 0 1-6.054-14.784z m-395.61-125.35A62.426 62.426 0 0 1 8.371 365.53a62.848 62.848 0 0 1 0-62.656 62.426 62.426 0 0 1 54.093-31.335c34.496 0 62.464 28.058 62.464 62.656 0 34.611-27.968 62.669-62.464 62.669z m0-31.334a31.178 31.178 0 0 0 27.046-15.668 31.424 31.424 0 0 0 0-31.334 31.22 31.22 0 0 0-58.278 15.68 31.283 31.283 0 0 0 31.232 31.334z m1290.918-93.99c-34.496 0-62.464-28.058-62.464-62.67 0-34.61 27.968-62.668 62.464-62.668s62.464 28.057 62.464 62.668c0 34.612-27.968 62.67-62.464 62.67z m0-31.335c11.162 0 21.479-5.978 27.06-15.667a31.424 31.424 0 0 0 0-31.335 31.22 31.22 0 0 0-58.279 15.667 31.283 31.283 0 0 0 31.232 31.335z" fill="#515151" p-id="58505"></path></svg>