<?xml version="1.0" standalone="no"?><!DOCTYPE svg PUBLIC "-//W3C//DTD SVG 1.1//EN" "http://www.w3.org/Graphics/SVG/1.1/DTD/svg11.dtd"><svg t="1760577965306" class="icon" viewBox="0 0 1024 1024" version="1.1" xmlns="http://www.w3.org/2000/svg" p-id="9587" xmlns:xlink="http://www.w3.org/1999/xlink" width="200" height="200"><path d="M832 768h-614.4a38.4 38.4 0 0 1 0-76.8H230.4V422.4a294.4 294.4 0 0 1 588.8 0V691.2h12.8a38.4 38.4 0 0 1 0 76.8zM742.4 422.4a217.6 217.6 0 0 0-435.2 0V691.2h435.2V422.4zM473.6 819.2h102.4a38.4 38.4 0 0 1 0 76.8h-102.4a38.4 38.4 0 0 1 0-76.8z" p-id="9588" fill="#ffffff"></path></svg>