<?xml version="1.0" standalone="no"?><!DOCTYPE svg PUBLIC "-//W3C//DTD SVG 1.1//EN" "http://www.w3.org/Graphics/SVG/1.1/DTD/svg11.dtd"><svg t="1761280747715" class="icon" viewBox="0 0 1024 1024" version="1.1" xmlns="http://www.w3.org/2000/svg" p-id="1584" xmlns:xlink="http://www.w3.org/1999/xlink" width="200" height="200"><path d="M556.739048 875.178667c168.228571-17.066667 316.952381-156.038095 316.952381-326.704762 0-19.504762-17.066667-36.571429-36.571429-36.571429s-36.571429 17.066667-36.571429 36.571429c0 136.533333-131.657143 256-280.380952 256s-280.380952-119.466667-280.380952-256c0-19.504762-17.066667-36.571429-36.571429-36.571429s-36.571429 17.066667-36.571428 36.571429c0 170.666667 148.72381 309.638095 316.95238 326.704762V982.454857c0 19.504762 17.066667 36.571429 36.571429 36.571429s36.571429-17.066667 36.571429-36.571429v-107.27619c0 2.438095 0 0 0 0z" fill="#385c3d" p-id="1585"></path><path d="M361.691429 492.397714c0 87.771429 70.704762 158.47619 158.47619 158.476191s158.47619-70.704762 158.476191-158.476191v-248.685714c0-87.771429-70.704762-158.47619-158.476191-158.47619s-158.47619 70.704762-158.47619 158.47619v248.685714z m-73.142858-248.685714c0-129.219048 104.838095-231.619048 231.619048-231.619048s231.619048 104.838095 231.619048 231.619048v248.685714c0 126.780952-104.838095 231.619048-231.619048 231.619048s-231.619048-104.838095-231.619048-231.619048v-248.685714z" fill="#385c3d" p-id="1586"></path></svg>