<?xml version="1.0" standalone="no"?><!DOCTYPE svg PUBLIC "-//W3C//DTD SVG 1.1//EN" "http://www.w3.org/Graphics/SVG/1.1/DTD/svg11.dtd"><svg t="1762414718571" class="icon" viewBox="0 0 1024 1024" version="1.1" xmlns="http://www.w3.org/2000/svg" p-id="1208" xmlns:xlink="http://www.w3.org/1999/xlink" width="200" height="200"><path d="M960.28 702.46c0 93.52-72.52 169.4-162.03 169.4-79.71 0-145.88-60.2-159.32-139.44H385.72c-13.53 79.24-79.61 139.44-159.32 139.44-86.24 0-156.62-70.56-161.56-159.41h-0.56v-59.73c0-25.95 7.75-51.24 22.12-72.33l73.17-107.06h-26.32c-19.04 0-29.68-23.33-17.36-38.55 10.45-12.97 26.14-21.19 43.68-21.19h247.8c31.55 0 57.22 26.79 57.22 59.73l-14.28 24.92-11.11 19.41-8.77 15.31c-10.08 17.64 9.43 35.47 29.12 35.47h79.05c31.18 0 104.72-11.38 131.79-137.95l14-141.49c13.81-35.65-11.38-74.67-48.16-74.67h-28.56c-15.78 0-28.56-13.34-28.56-29.86s12.78-29.87 28.56-29.87h133.46c36.87 0 66.73 31.27 66.73 69.72 0 3.17-0.46 11.29-0.46 11.29-0.56 1.3-0.93 2.71-1.21 4.11-1.31 6.25-3.55 12.04-6.35 17.55-1.49 2.8-2.52 5.79-3.17 8.96l-33.79 204.21c-4.11 24.83 9.33 49.1 31.92 57.77l12.32 5.41c85.31 4.76 153.16 78.49 153.16 168.84z m-733.97-89.6c-47.41 0-85.77 40.13-85.77 89.69s38.36 89.69 85.77 89.69 85.77-40.13 85.77-89.69-38.36-89.69-85.77-89.69z m571.95 0c-47.41 0-85.77 40.13-85.77 89.69s38.45 89.69 85.77 89.69 85.77-40.13 85.77-89.69-38.36-89.69-85.77-89.69z m0 119.56c-15.77 0-28.56-13.44-28.56-29.87s12.79-29.87 28.56-29.87 28.56 13.44 28.56 29.87-12.79 29.87-28.56 29.87z m-571.95 0c-15.77 0-28.56-13.44-28.56-29.87s12.79-29.87 28.56-29.87 28.56 13.44 28.56 29.87c0.1 16.43-12.79 29.87-28.56 29.87zM117.02 375.23V264.82c0-36.96 39.11-80.27 74.48-80.27h174.81c40.51 0 66.83 37.98 66.83 80.27v110.41H117.02z m0 0" p-id="1209" fill="#2bb856"></path></svg>