<?xml version="1.0" standalone="no"?><!DOCTYPE svg PUBLIC "-//W3C//DTD SVG 1.1//EN" "http://www.w3.org/Graphics/SVG/1.1/DTD/svg11.dtd"><svg t="1762157973830" class="icon" viewBox="0 0 1649 1024" version="1.1" xmlns="http://www.w3.org/2000/svg" p-id="1864" xmlns:xlink="http://www.w3.org/1999/xlink" width="322.0703125" height="200"><path d="M327.111111 0H1137.777778c282.766222 0 512 229.233778 512 512s-229.233778 512-512 512H0L327.111111 0z" fill="#ff3133" p-id="1865"></path><path d="M559.502222 0h-369.777778L0 465.351111h144.298667L0 1018.936889l493.511111-703.715556-125.553778-1.848889L559.502222 0z" fill="#FD9967" p-id="1866"></path><path d="M1281.877333 398.108444l21.447111-85.134222L1130.837333 227.555556l-215.381333 64.056888-21.447111 106.496 215.381333-85.134222 172.487111 85.134222zM742.968889 803.527111l43.178667-191.886222 43.207111-21.333333 21.447111-106.780445-43.178667 21.333333 21.731556-106.752h42.922666l21.731556-85.134222H850.773333V227.555556h-86.385777l-21.447112 85.418666h-42.922666l-21.731556 85.134222h43.207111l-21.475555 149.475556H635.448889l-21.731556 106.467556 64.625778-21.048889-21.447111 85.105777h-43.178667l-21.475555 85.418667h150.755555zM1174.044444 824.888889l64.654223-128.113778h-107.861334l-21.447111 42.695111h-172.487111l64.654222-234.609778h129.28v64.056889h-64.625777l-21.475556 85.134223h150.755556l64.654222-234.609778H915.456L829.354667 824.888889h344.689777z" fill="#FFFFFF" p-id="1867"></path></svg>