<?xml version="1.0" standalone="no"?><!DOCTYPE svg PUBLIC "-//W3C//DTD SVG 1.1//EN" "http://www.w3.org/Graphics/SVG/1.1/DTD/svg11.dtd"><svg t="1760578017243" class="icon" viewBox="0 0 1024 1024" version="1.1" xmlns="http://www.w3.org/2000/svg" p-id="11472" xmlns:xlink="http://www.w3.org/1999/xlink" width="200" height="200"><path d="M152.9856 413.696c0 1.024 0.4096 23.1424 23.1424 23.1424 22.9376 0 23.1424-22.3232 23.1424-23.1424v-144.384c0-27.2384 22.1184-49.3568 49.3568-49.3568H393.216c1.024 0 23.1424-0.4096 23.1424-23.1424 0-22.9376-22.3232-23.1424-23.1424-23.1424h-144.384c-52.8384 0-95.8464 43.008-95.8464 95.8464V413.696z m553.7792 97.28H320.9216c-12.6976 0-23.1424 10.4448-23.1424 23.1424 0 12.6976 10.4448 23.1424 23.1424 23.1424H706.56c12.6976 0 23.1424-10.4448 23.1424-23.1424 0-12.6976-10.24-23.1424-22.9376-23.1424z m144.5888-74.1376c22.9376 0 23.1424-22.3232 23.1424-23.1424v-144.384c0-52.8384-43.008-95.8464-95.8464-95.8464h-144.384c-1.024 0-23.1424 0.4096-23.1424 23.1424 0 22.9376 22.3232 23.1424 23.1424 23.1424h144.384c27.2384 0 49.3568 22.1184 49.3568 49.3568V413.696c0 0.8192 0.4096 23.1424 23.3472 23.1424zM176.128 631.6032c-22.9376 0-23.1424 22.3232-23.1424 23.1424v144.384c0 52.8384 43.008 95.8464 95.8464 95.8464H393.216c1.024 0 23.1424-0.4096 23.1424-23.1424 0-22.9376-22.3232-23.1424-23.1424-23.1424h-144.384c-27.2384 0-49.3568-22.1184-49.3568-49.3568v-144.384c0-1.024-0.4096-23.3472-23.3472-23.3472z m698.368 23.1424c0-1.024-0.4096-23.1424-23.1424-23.1424-22.9376 0-23.1424 22.3232-23.1424 23.1424v144.384c0 27.2384-22.1184 49.3568-49.3568 49.3568h-144.384c-1.024 0-23.1424 0.4096-23.1424 23.1424 0 22.9376 22.3232 23.1424 23.1424 23.1424h144.384c52.8384 0 95.8464-43.008 95.8464-95.8464v-144.1792z m0 0" p-id="11473" fill="#385c3d"></path></svg>