<?xml version="1.0" standalone="no"?><!DOCTYPE svg PUBLIC "-//W3C//DTD SVG 1.1//EN" "http://www.w3.org/Graphics/SVG/1.1/DTD/svg11.dtd"><svg t="1740459949283" class="icon" viewBox="0 0 1024 1024" version="1.1" xmlns="http://www.w3.org/2000/svg" p-id="19452" xmlns:xlink="http://www.w3.org/1999/xlink" width="200" height="200"><path d="M376.163265 783.673469a83.591837 83.591837 0 1 0 0 167.183674 83.591837 83.591837 0 0 0 0-167.183674z m0 62.693878a20.897959 20.897959 0 1 1 0 41.795918 20.897959 20.897959 0 0 1 0-41.795918zM752.326531 783.673469a83.591837 83.591837 0 1 0 0 167.183674 83.591837 83.591837 0 0 0 0-167.183674z m0 62.693878a20.897959 20.897959 0 1 1 0 41.795918 20.897959 20.897959 0 0 1 0-41.795918zM63.174531 119.891592a31.346939 31.346939 0 0 1 36.362449-25.370123c46.226286 8.233796 95.984327 37.67902 119.327347 87.374368l4.263183 9.571265c15.798857 37.888 27.167347 97.196408 91.219592 450.288327a42.422857 42.422857 0 0 0 38.535837 37.302857l3.343673 0.125387h387.38547c20.103837 0 37.302857-14.356898 41.315265-34.084571l0.543347-3.343673 0.773224-4.054205 91.303184-349.685551 0.083592-0.91951 0.083592-2.674939a42.527347 42.527347 0 0 0-39.037388-42.631836l-3.134694-0.125388H348.118204a31.346939 31.346939 0 0 1-3.030204-62.547592l3.030204-0.146286H835.500408c57.991837 0 104.886857 47.271184 104.886857 105.451102 0 2.925714-0.125388 5.809633-0.355265 8.714449l-0.459755 4.325878-0.773225 4.075102-91.491265 350.291592-0.334367 2.403265a105.074939 105.074939 0 0 1-98.596572 87.541551l-4.785632 0.10449H356.205714c-52.955429 0-97.530776-39.664327-103.800163-90.655347l-39.977796-218.592653C181.185306 264.192 173.16049 232.030041 162.126367 208.561633c-13.270204-28.233143-45.473959-47.292082-73.581714-52.286694a31.346939 31.346939 0 0 1-25.370122-36.362449z" fill="#515151" p-id="19453"></path></svg>