<?xml version="1.0" standalone="no"?><!DOCTYPE svg PUBLIC "-//W3C//DTD SVG 1.1//EN" "http://www.w3.org/Graphics/SVG/1.1/DTD/svg11.dtd"><svg t="1740533506618" class="icon" viewBox="0 0 1024 1024" version="1.1" xmlns="http://www.w3.org/2000/svg" p-id="72712" xmlns:xlink="http://www.w3.org/1999/xlink" width="200" height="200"><path d="M558.235532 512.696872 558.235532 512.696872l-23.118534-23.118534L558.235532 512.696872 558.235532 512.696872zM511.999488 64.823378c-246.986207 0-447.189925 200.177112-447.189925 447.163319s200.203718 447.189925 447.189925 447.189925c246.986207 0 447.189925-200.204741 447.189925-447.189925S758.985696 64.823378 511.999488 64.823378L511.999488 64.823378zM743.09989 697.560206l-46.208415 46.237067L512.027118 558.905286 327.13513 743.797273l-46.209438-46.237067 184.891987-184.863335L280.925692 327.83149l46.209438-46.238091 207.982892 207.983915-23.089881-23.090904 184.863335-184.893011 46.208415 46.238091L558.235532 512.696872 743.09989 697.560206 743.09989 697.560206zM743.09989 697.560206" fill="#bfbfbf" p-id="72713"></path></svg>