<?xml version="1.0" standalone="no"?><!DOCTYPE svg PUBLIC "-//W3C//DTD SVG 1.1//EN"
        "http://www.w3.org/Graphics/SVG/1.1/DTD/svg11.dtd">
<svg t="1743054241945" class="icon" viewBox="0 0 1024 1024" version="1.1" xmlns="http://www.w3.org/2000/svg" p-id="8560"
     xmlns:xlink="http://www.w3.org/1999/xlink" width="200" height="200">
    <path d="M230.8 439.9c-14.1 11.2-28.1 22.8-41.6 35.1-13.7 12.6-17.6 10.7-33.1 3.7-1.8 2.6-3.3 5.8-4.3 9.1 2 2.2 4.2 3.9 6.4 5.7-3.7 4-7.4 8.1-11.1 12.2-1.7-2.9-4.4-4.8-7.3-5-0.5 10.4-1.1 20.9-1.6 31.3 4.7 1.8 9.9 1.1 14.2-1.8-2.3 8.8 0.2 19.2 6 25 4.8-3.9 8-10.8 8.2-17.9 5-0.1 9.9 3.1 12.8 8.1-3.5 5.4-6.9 10.8-10.4 16.1 2.9 6.3 9.6 9.6 15.2 7.2 2.8 8.8 7.6 16.5 13.7 22-0.3-4.9-0.7-9.9-1.1-14.8 4.8-1.3 9.7-2.7 14.6-4-0.3 6.5-0.6 13.6 2.1 19.2 2.7 5.7 9.4 8.9 13.4 4.6-1.6 7.7 1.8 15.5 7.1 20.4 7.6-83.1 36.8-158 69.3-231.2-24.3 17.9-48.7 35.9-72.5 55z"
          fill="#A1DE85" p-id="8561"></path>
    <path d="M545 732.9c-15-14.8-34.5-18.5-55.5-25.9-60-16.7-115.5-29.6-174-53.7-16.5-5.6-33-7.4-49.5-11.1-19.7-5.7-37.5-16.9-51.6-34.5-1.1 3.7-1.6 7.8-1.5 12.3 1 28.4 0 49.4 7 59.3 7 9.9 214 70.4 268.1 88.3 37.6 12.5 46.5 21.6 62.6 20.1-2.1-21 8.9-40.8-5.6-54.8z"
          fill="#F8B88E" p-id="8562"></path>
    <path d="M781 534.1c2.5-23.5-3-24.7-32-30.9-29-6.2-213-62.4-241-69.8-28-7.4-44-13.6-62-7.4-18 6.2-38 18.5-38 18.5-45 33.4-168 133.4-168 133.4s-19.9 9.6-25.5 29.7c14.1 17.6 31.9 28.8 51.6 34.5 16.5 3.7 33 5.6 49.5 11.1 58.5 24.1 114 37 174 53.7 20.2 7.1 41.3 13.1 56 26.5 6-6.4 16-4.9 22.4-10.8 195.7-155.5 212.9-187.3 213-188.5z"
          fill="#F6D9A4" p-id="8563"></path>
    <path d="M566 716.8c-6.4 5.9-21.1 15.1-21 16.1 1.9 19.5 2.4 56.1 4.1 55.6 17-4.9 58-38.6 90-62 32-23.5 141-127.9 144-136.6 2.9-8.4 1.1-21.3 0.7-30-0.5-13.5-1.1-27.1-2.3-40.5 1.3 13.8-7.8 23-15.5 30.3-62.8 58.6-126.7 108-200 167.1z"
          fill="#F3A368" p-id="8564"></path>
    <path d="M224.4 574.2c-7.5 8.3-6.6 14.9 0.7 23.5 13.7 16.1 51.8 35.8 107.2 39.5 55.5 3.7 105-14.5 147.8-102.5s-56.2-140.8-56.2-140.8-192 172-199.5 180.3z"
          fill="#FF9C8E" p-id="8565"></path>
    <path d="M232.4 578.5c-8.4 7.7-1.5 27.8 93 46.9 0 0-33.5-28.4-55.5-42s-29.5-12.3-37.5-4.9z" fill="#E45C26"
          p-id="8566"></path>
    <path d="M315.9 600.1c-7.5 8.3-6.6 14.9 0.7 23.5 13.7 16.1 51.8 35.8 107.2 39.5 55.5 3.7 105-14.5 147.8-102.5 42.7-88-56.2-140.8-56.2-140.8s-192 172-199.5 180.3z"
          fill="#FFC7BD" p-id="8567"></path>
    <path d="M323.9 604.5c-8.4 7.7-1.5 27.8 93 46.9 0 0-33.5-28.4-55.5-42s-29.5-12.4-37.5-4.9z" fill="#E45C26"
          p-id="8568"></path>
    <path d="M424.5 631.8c-8.4 9.3-7.3 16.6 0.8 26.2 15.3 17.9 57.7 39.9 119.5 44 61.8 4.1 117-16.2 164.7-114.2 47.7-98-62.7-156.8-62.7-156.8S432.9 622.5 424.5 631.8z"
          fill="#FF9C8E" p-id="8569"></path>
    <path d="M433.4 636.6c-9.3 8.6-1.7 30.9 103.6 52.3 0 0-37.3-31.6-61.8-46.8-24.5-15.2-32.9-13.7-41.8-5.5z"
          fill="#E45C26" p-id="8570"></path>
    <path d="M798.7 454.4c7.9-1.9 14-11.8 13.3-21.7-2.1 4.9-8.7 2.7-10.8-2.2-2.1-4.9-1.4-10.8-1.7-16.3-0.3-5.5-2.5-11.9-7-12.7-3.8-0.7-7.1 3.1-10.8 4.1-12.6 3.4-20.9-23.7-33.5-19.7-3.4 1.1-6.1 4.4-8.8 7.1-13.1 12.7-31.5 13.7-47.7 8.8-16.2-4.9-30.9-15-46.4-22.7-8.2-4.1-16.6-7.4-25.2-10.2 26.7 53.9 51.4 109.4 102.4 128.8 20.2 6.8 47.9 11.2 74.5 10.8 0.4-2.4 0.6-4.8 0.4-7.2-7.2-2.9-16.1-10.8-12.4-18.9 2.2-4.8 8-5.4 11.9-2.7 3.9 2.7 6.4 7.7 8.7 12.4 6.5-12.1 3.2-30.5-6.9-37.7z"
          fill="#BCE3A9" p-id="8571"></path>
    <path d="M453.8 361.8c-21.7-7.3-43.1-16.2-65.1-12.5-18.9 3.2-35.8 15.4-52.2 27.4-4.1 2.9-8.1 5.9-12.1 8.8-29.6 66.9-56.4 135.1-63.3 211 1.5 1.4 3.1 2.5 4.7 3.3 7.2 3.3 15.1 2.1 22.7 0.6 2.4-6.9-0.2-14.8-0.3-22.3-0.1-7.5 5.7-16.5 10.9-12.7-3.6 14.1 8.4 26.2 18.7 33.6 3.8 2.7 8.1 5.5 12.3 4.1 1.9-0.6 3.7-2.2 5.7-2.6 8.3-1.8 11.5 14.1 19.3 17.8 8.2 3.9 16.2-12.4 9.5-19.5 9.6-6.8 19.6 8.2 24.2 20.6 3.2 8.7 9 18.6 15.5 21.5 49.2-70.1 50.2-181.2 49.5-279.1z"
          fill="#97D381" p-id="8572"></path>
    <path d="M643.3 644.3c-5.5-1.7-10.3-6.9-10.7-13.8v-0.1c-3.9-5.6-7.5-11.2-10.1-15.9-41.2-89-86.8-166.9-134.1-244.6-11.7-0.8-23.3-4.3-34.7-8.1 0.7 97.9-0.3 209.1-49.5 279.1 2.8 1.2 5.7 1.2 8.6-0.9-1.8-6.2 5.1-11.1 10.3-9.9 5.2 1.2 9.9 5.3 15.2 5.4 8.2 0.1 14.6-12.3 11.1-21.4 5.8-6.5 15.3-0.7 20.3 6.7 5 7.5 9.1 17.1 16.5 20.1 6.3 2.5 12.9-0.6 19.4-2.3 6.4-1.7 14.4-1.1 17.8 5.8 2.3 4.7 1.8 11.1 4.8 15.2 3.1 4.2 8.3 4 12.8 4.9 10.2 2.2 18.2 11.4 27.2 17.6 8.9 6.3 21.7 8.8 28.5-0.7-6.1-6.3-5.7-19.7 0.7-25.5 6.4-5.7 16.9-1.9 19.8 7.2 0.8 2.6 1.2 5.6 2.7 7.7 3.1 4.1 8.6 1.9 12.3-1.2 6.3-5.3 11.2-12.9 14.2-21.6-0.9-1.2-2-2.4-3.1-3.7z"
          fill="#CFE97B" p-id="8573"></path>
    <path d="M643.3 644.3c1.1 1.3 2.1 2.5 3.2 3.7 0.4-1.1 0.8-2 1.1-3.1-1.4 0.1-2.9-0.2-4.3-0.6z" fill="#9ABC00"
          p-id="8574"></path>
    <path d="M546.1 362.4c-18.7 2.7-37.3 8.6-56.2 7.6-0.5 0-0.9-0.1-1.4-0.1 47.3 77.7 92.9 155.6 134.1 244.6 2.6 4.8 6.1 10.4 10.1 15.9-0.5-8.6 8.2-16.3 13.9-11.6-3.5-8.6-7.1-17.8-6.3-27.4s7.7-19.1 15.4-17.2c7.6 1.9 12.2 13.5 19.8 13.7 4.1 0.1 7.4-3.1 10.5-6.8-6.5-74.5-77.8-148.3-120-220.4-6.6 0.3-13.3 0.8-19.9 1.7z"
          fill="#BCE3A9" p-id="8575"></path>
    <path d="M722.6 497.5c-51-19.4-75.7-74.9-102.4-128.8-17.7-5.6-35.9-8.3-54.2-7.9 42.2 72 113.5 145.9 120 220.4 4.3-5.1 8.3-11.1 13.9-11 3.5 0.1 6.9 2.6 10.3 1.4 5.4-1.8 6.5-11.3 11.5-14.3 6.5-3.9 15.8 5 20.7-1.5 4.5-6.1-1.9-15.1-7.6-19.3-2.8-10.3 8.6-18.3 17.2-16.4 8.6 1.9 16.4 8.8 25.1 8.9 9.4 0.1 17.8-9.5 19.7-20.7-26.4 0.4-54.1-4-74.2-10.8z"
          fill="#97D381" p-id="8576"></path>
    <path d="M232.4 526.7a82.8 45.7 0 1 0 165.6 0 82.8 45.7 0 1 0-165.6 0Z" fill="#FF7F6A" p-id="8577"></path>
    <path d="M237 515.8a80.5 34.9 0 1 0 161 0 80.5 34.9 0 1 0-161 0Z" fill="#FF5E3D" p-id="8578"></path>
    <path d="M245.4 511.2a76.3 30.3 0 1 0 152.6 0 76.3 30.3 0 1 0-152.6 0Z" fill="#FFA476" p-id="8579"></path>
    <path d="M513.3 550.9c3.4 24.9-30.4 52.7-75.4 62.2s-84.4-3.1-87.8-27.9c-3.4-24.9 30.4-52.7 75.4-62.2 45.1-9.4 84.4 3 87.8 27.9z"
          fill="#FF7F6A" p-id="8580"></path>
    <path d="M511.8 540.3c2.6 19-30.8 41.8-74.7 51-43.8 9.2-81.5 1.2-84.1-17.8-2.6-19 30.8-41.8 74.7-51s81.6-1.2 84.1 17.8z"
          fill="#FF5E3D" p-id="8581"></path>
    <path d="M511.3 535.7c2.3 16.5-29.6 36.9-71.1 45.6-41.5 8.7-77 2.4-79.3-14.1s29.6-36.9 71.1-45.6c41.5-8.7 77-2.3 79.3 14.1z"
          fill="#FFA476" p-id="8582"></path>
    <path d="M483.5 563.7a82.8 45.7 0 1 0 165.6 0 82.8 45.7 0 1 0-165.6 0Z" fill="#FF7F6A" p-id="8583"></path>
    <path d="M488 552.9a80.5 34.9 0 1 0 161 0 80.5 34.9 0 1 0-161 0Z" fill="#FF5E3D" p-id="8584"></path>
    <path d="M495.4 548.3a71.3 29 0 1 0 142.6 0 71.3 29 0 1 0-142.6 0Z" fill="#FFA476" p-id="8585"></path>
    <path d="M544.5 511.8a82.8 45.7 0 1 0 165.6 0 82.8 45.7 0 1 0-165.6 0Z" fill="#FFA476" p-id="8586"></path>
    <path d="M549 501.1a80.5 34.9 0 1 0 161 0 80.5 34.9 0 1 0-161 0Z" fill="#FFA476" p-id="8587"></path>
    <path d="M556.5 496.4a71.3 29 0 1 0 142.6 0 71.3 29 0 1 0-142.6 0Z" fill="#FFA476" p-id="8588"></path>
    <path d="M634.5 434.1a82.8 45.7 0 1 0 165.6 0 82.8 45.7 0 1 0-165.6 0Z" fill="#FF7F6A" p-id="8589"></path>
    <path d="M639.1 423.3a80.5 34.9 0 1 0 161 0 80.5 34.9 0 1 0-161 0Z" fill="#FF5E3D" p-id="8590"></path>
    <path d="M227.3 462.7c-3.3 3-6.7 6.3-8 11.1-2.2 8 2.9 16.6 9.1 20.4 6.2 3.8 13.2 4.3 19.8 6.6 31.6 10.9 47.2 58.6 78.4 70.9 22 8.7 45.6-2.5 68.5-6.5 29.8-5.2 61 2.5 86.9 21.4 21.1 15.4 42.6 39 66.5 32.3 15.9-4.5 27-21.3 39.5-34.3 20.3-21.2 46.6-33.6 73.2-34.4 8.2-0.3 16.6 0.5 24.5-2.3 12.9-4.7 22.5-18.6 28.6-33.5 6.1-14.9 9.4-31.3 14.8-46.6 7.3-20.6 18.3-39.2 31.9-54 1.4-1.5 3.1-10.8 3.6-13.1 0.7-3.7-1.9 0.5-4.4-1.9-16.3-16.2-38.3-20-58.7-25.5-54.2-14.4-105-43.8-158.3-62.5s-112.6-25.8-162.7 3.5c-13.3 7.8-20.4 17.8-29.2 31.5-9.7 15.2-24.5 25.6-37 37.1l-87 79.8z"
          fill="#FFE286" p-id="8591"></path>
    <path d="M537.5 534.7c-15-14.8-34.5-18.5-55.5-25.9-60-16.7-115.5-29.6-174-53.7-16.5-5.6-33-7.4-49.5-11.1-19.7-5.7-37.5-16.9-51.6-34.5-1.1 3.7-1.6 7.8-1.5 12.3 1 28.4 0 49.4 7 59.3 7.1 9.9 214.1 70.4 268.1 88.3 37.6 12.5 46.5 21.6 62.6 20.1-2.1-21 8.9-40.8-5.6-54.8z"
          fill="#FFC28E" p-id="8592"></path>
    <path d="M773.6 335.9c2.5-23.5-3-24.7-32-30.9-29-6.2-213-62.4-241-69.8-28-7.4-44-13.6-62-7.4-18 6.2-38 18.5-38 18.5-45 33.4-168 133.4-168 133.4s-19.9 9.6-25.5 29.7c14.1 17.6 31.9 28.8 51.6 34.5 16.5 3.7 33 5.6 49.5 11.1 58.5 24.1 114 37 174 53.7 20.2 7.1 41.3 13.1 56 26.5 6-6.4 16-4.9 22.4-10.8 195.6-155.5 212.8-187.3 213-188.5z"
          fill="#FFE2A3" p-id="8593"></path>
    <path d="M558.5 518.6c-6.4 5.9-21.1 15.1-21 16.1 1.9 19.5 2.4 56.1 4.1 55.6 17-4.9 58-38.6 90-62 32-23.5 141-127.9 144-136.6 2.9-8.4 1.1-21.3 0.7-30-0.5-13.5-1.1-27.1-2.3-40.5 1.3 13.8-7.8 23-15.5 30.3-62.8 58.6-126.7 108-200 167.1z"
          fill="#FFB169" p-id="8594"></path>
    <path d="M453.9 241.7c8.2 0 17.9 2.7 31.4 6.4 3.5 0.9 7.2 1.9 11.1 3 10.4 2.7 43.5 12.6 81.8 23.9 66.3 19.7 141.4 42 160.1 46 7.5 1.6 16 3.4 19.5 4.9 0 0.2 0.1 0.5 0.1 0.8 0.1 1.7 0.3 3.3 0.8 4.8 0.7 10.1 1.1 20.2 1.5 30.5 0.1 2.1 0.2 4.4 0.4 6.8 0.3 4.8 0.8 11.9 0.2 15.8-0.3 0.4-0.6 0.8-1.1 1.3-3.5 4.1-4.8 9.6-3.4 14.8 1.4 5.2 5.2 9.4 10.2 11.3 4.3 1.6 8 3.4 10.9 5.2 1.9 1.2 4 1.9 6.1 2.3v0.4c0 1 0.1 1.9 0.3 2.8v0.3c-0.1 0.9-0.1 1.9 0 2.8 0.3 2.9 0.8 6.7 2.5 10.7 0.7 1.6 1.6 3.2 2.6 4.6-3.1 2.4-5.3 5.8-6.1 9.8-0.8 3.9-0.1 8 1.9 11.4-6.3 2-11.5 6.5-14.4 12.7-2.9 6.5-3.2 13.7-0.5 20.5 2.1 5.4 5.8 9.9 10 13.4-1 1.9-2.3 3.2-2.9 3.4-6.9 2.5-11.4 9.3-10.9 16.6 0.7 9.5 1.2 19.7 1.6 31.1 0.1 2.1 0.2 4.4 0.4 6.8 0.3 4.9 0.8 11.9 0.1 15.8C755.3 598.9 659.5 691 629.5 713c-7.8 5.8-16.4 12.2-24.6 18.5-19.1 14.5-44.5 33.7-56.6 39.6h-1c-4.7 0-9.5-1.9-19.8-6.3-8-3.4-18.9-8-34.3-13.1-15.8-5.3-44.4-14.1-77.5-24.2-61.8-19-163.5-50.3-183.2-59.9-2.1-6.1-2.4-21.2-2.7-33.6-0.1-4.7-0.2-9.6-0.4-14.8-0.1-2.5 0.2-4.9 0.8-7.3 0.4-1.5 1.1-3.1 1.9-4.7 3.3-6.3 2.2-13.9-2.7-19.1l-0.4-0.4-0.9-0.9c-0.5-0.6-0.9-1.1-1.3-1.5l0.1-0.1c0.2-0.2 1.3-1.4 6.7-6.4 0.8-0.7 1.5-1.6 2.2-2.4 0.9-0.6 1.8-1.2 2.6-1.9l4.2-3.8c5.6-5.1 6.9-13.4 3.3-20.1-2.9-5.3-8.5-8.5-14.4-8.5-1.1 0-2.3 0.1-3.4 0.4-0.8-0.9-1.7-1.8-2.7-2.5 2.9-5.1 2.9-11.3-0.1-16.4-5.5-9.5-15.3-15.5-25.8-15.6-1-1.3-2.2-2.5-3.6-3.5l-0.1-0.1 8.1-8.8c0.9-1 1.7-2.1 2.3-3.3 3.2-0.2 6.3-0.8 9.3-2 8.2-3.2 12.4-12.4 9.5-20.7-2.3-6.4-2.6-19.4-2.9-34.3-0.1-4.5-0.2-9.4-0.4-14.4-0.1-2.5 0.2-4.9 0.8-7.3 3.5-12.5 16.9-19.4 16.9-19.4 1.2-0.5 2.2-1.2 3.2-2.1 1.2-1 122.1-99.3 166.8-132.5 3.2-1.9 19.7-11.7 34.2-16.6 3.5-0.8 6.7-1.3 10.3-1.3M453.9 225.3c-5.2 0-10.2 0.7-15.4 2.5-18 6.2-38 18.5-38 18.5-45 33.4-168 133.4-168 133.4s-19.9 9.6-25.5 29.7c-1.1 3.7-1.6 7.8-1.5 12.3 0.8 23.8 0.3 42.3 4.3 53.5-1.6 0.6-3.1 0.9-4.7 0.9-4 0-8.4-1.9-15.1-4.9-1.7 2.4-3.1 5.3-3.9 8.3 1.8 2.1 3.8 3.5 5.8 5.2l-10.2 11.1c-1.5-2.6-4-4.4-6.6-4.6-0.5 9.5-1 19.1-1.5 28.5 1.6 0.6 3.2 0.9 4.8 0.9 2.8 0 5.7-0.9 8.2-2.6-2.1 8 0.2 17.5 5.5 22.8 4.4-3.6 7.3-9.8 7.5-16.3h0.1c4.5 0 8.9 2.8 11.6 7.4-3.2 4.9-6.3 9.8-9.5 14.7 2.1 4.5 6.2 7.3 10.4 7.3 1.2 0 2.4-0.2 3.5-0.7 1.6 5.1 4 9.6 6.9 13.7-4.2 3.8-6.9 6.5-7.6 7.3-7.5 8.3-6.6 14.9 0.7 23.5 0.6 0.7 1.3 1.4 1.9 2.1-1.3 2.4-2.4 5.1-3.2 7.9-1.1 3.7-1.6 7.8-1.5 12.3 1 28.4 0 49.4 7 59.3 7 9.9 214 70.4 268.1 88.3 34.8 11.6 45 20.2 59.2 20.2 0.5 0 1 0 1.5-0.1 0.2 0.5 0.3 0.8 0.4 0.8h0.1c17-4.9 58-38.6 90-62 32-23.5 141-127.9 144-136.6 2.9-8.4 1.1-21.3 0.7-30-0.4-10.5-0.9-21.1-1.7-31.6 7.3-2.6 13.3-10.6 14.8-19.8 0.4-2.4 0.6-4.8 0.4-7.2-7.2-2.9-16.1-10.8-12.4-18.9 1.4-2.9 4.1-4.3 6.8-4.3 1.8 0 3.6 0.6 5.1 1.6 3.9 2.7 6.4 7.7 8.7 12.4 6.5-11.9 3.2-30.3-6.9-37.5 7.9-1.9 14-11.8 13.3-21.7-0.8 1.9-2.4 2.7-4 2.7-2.6 0-5.5-2-6.8-4.9-0.8-1.8-1.1-3.9-1.3-5.9 0.1-0.4 0.2-0.8 0.2-1.2 0-1.2-0.2-2.3-0.4-3.4 0-1.9-0.1-3.9-0.2-5.8-0.3-5.5-2.5-11.9-7-12.7-0.3-0.1-0.6-0.1-0.9-0.1-2 0-3.8 1.1-5.7 2.2-3.9-2.5-8.7-4.7-13.9-6.7 2.2-2.5 3.5-4.3 3.8-5.2 2.9-8.4 1.1-21.3 0.7-30-0.5-13.5-1.1-27.1-2.3-40.5 0.2 1.9 0.1 3.6-0.1 5.4-0.4-14.4-8.1-16.2-32.5-21.4-29-6.2-213-62.4-241-69.8-20.1-5.6-34-10.3-46.7-10.3zM227.4 562.5c-0.1-0.9-0.1-1.8-0.2-2.7 1.5-0.4 2.9-0.8 4.4-1.2-1.5 1.4-2.9 2.7-4.2 3.9z"
          fill="#BCE3A9" opacity=".2" p-id="8595"></path>
</svg>