<?xml version="1.0" standalone="no"?><!DOCTYPE svg PUBLIC "-//W3C//DTD SVG 1.1//EN"
        "http://www.w3.org/Graphics/SVG/1.1/DTD/svg11.dtd">
<svg t="1743055164959" class="icon" viewBox="0 0 1024 1024" version="1.1" xmlns="http://www.w3.org/2000/svg"
     p-id="10055" xmlns:xlink="http://www.w3.org/1999/xlink" width="200" height="200">
    <path d="M512.59 129.94c219.2-0.38 420.34 164.84 418.23 394.61-2.69 283.17-234.77 374.62-416.31 375-181.74 0.38-420.16-116.61-420.73-373.08-0.56-256.67 221.12-396.14 418.81-396.53z"
          fill="#00A971" p-id="10056"></path>
    <path d="M513.36 928.37c-217.09 0-447.81-140.63-448.4-401.9-0.38-160.59 78.77-260.7 145.43-316.42 82.42-69 192.69-108.73 302.2-108.92h1c123.15 0 242.44 49 327.36 134.48 77.43 78 119.69 180.78 118.53 289.13-2.73 297.2-241.33 403.26-444.97 403.63z m-0.57-769.61c-96.44 0.2-193.07 35-265.49 95.48-57.07 47.84-125.07 133.72-124.89 272 0.59 251.14 239.76 344.47 391 344.47h0.77c64.16-0.2 384.61-17.49 387.68-346.57 1-92.79-35.35-181-101.86-248-74.15-74.74-178.52-117.58-286.44-117.58a1.16 1.16 0 0 1-0.77 0.19z"
          fill="#231815" p-id="10057"></path>
    <path d="M587.13 276.72c-80.69-2.5-183.67 37.65-186.73 131.22-2.89 93.55 78 117 178.66 120.26 27.86 1 54.37-0.2 78.19-4.23a53.56 53.56 0 0 0 2.88 6.91c14 28.44 44.57 41.89 68.2 30.36 23.63-11.72 31.26-44.18 17.3-72.62-1-1.92-2.12-3.84-3.08-5.57 13.44-15.95 21.51-36.7 22.48-63.4 3.07-89.33-97.22-140.24-177.9-142.93z"
          fill="#FCCF00" p-id="10058"></path>
    <path d="M710.66 594.09c-26.33 0-52.83-14.41-69.54-39a471.85 471.85 0 0 1-63 1.73C525.85 555.09 367 550.1 371.34 407c1.74-52.06 29.4-96.63 78.39-125.45 38.62-22.86 88.94-35.35 138.17-33.61 48.42 1.53 98 17.67 135.83 44 46.69 32.47 71.61 78.19 70.13 128.52-0.77 24.79-6.73 46.68-18.07 65.32 14.61 40.15 0.19 84-34.57 101.24a67.92 67.92 0 0 1-30.56 7.07z m-53.21-98.94A29.06 29.06 0 0 1 684.53 514c0.58 1.34 1.16 2.69 1.73 4.23 7.49 15 21.51 21.18 29.58 17.14s11.72-18.82 4.23-34a32.4 32.4 0 0 0-1.92-3.46 28.62 28.62 0 0 1 2.69-33.61c9.8-11.53 15-26.52 15.56-45.73 1.16-38.61-24-64.36-45.39-79.35-28.62-20-67.82-32.46-104.7-33.8-37.84-1.15-77.8 8.26-106.82 25.54-32.27 19-49 45.16-50.14 77.66C428 453 445.3 494.86 580.16 499.08c27.66 0.77 52.06-0.38 72.62-3.84a36.44 36.44 0 0 0 4.67-0.09z"
          fill="#231815" p-id="10059"></path>
</svg>