<?xml version="1.0" standalone="no"?><!DOCTYPE svg PUBLIC "-//W3C//DTD SVG 1.1//EN"
        "http://www.w3.org/Graphics/SVG/1.1/DTD/svg11.dtd">
<svg t="1743054225387" class="icon" viewBox="0 0 1024 1024" version="1.1" xmlns="http://www.w3.org/2000/svg" p-id="6666"
     xmlns:xlink="http://www.w3.org/1999/xlink" width="200" height="200">
    <path d="M93 533.7l45.5 12.5-28.2-105.8 50.7 15.3-8.8-91.1 66.9 15.1-4.8-85.8 64.7 24.3-0.9-98.1 62.4 45.5 14.6-131.3 95.6 104.1 25.2-55 53.1 82.4 39.1-51.7 43.1 79.2 37.9-41.9 35.9 77 41.4-38.5 31.6 99.4 33-38.1 9.2 95.6 21.1-22.5-7.5 39.6 25 15.6-112.9 120.6-547.6 137z"
          fill="#CAFFAB" p-id="6667"></path>
    <path d="M248.1 695.8l-73.8-175.7 36.7 10-21.2-79.4 40.4 12.2-6.4-67 50.4 11.4-3.7-65.8 48.9 18.3-0.7-78 48.4 35.4L378.3 217l75.5 82.2 20.2-45.6 41.5 64.5 29.9-39.4 32.7 60.1 28.9-31.9 27.2 58.5 32.2-29.9 23 72.4 27.9-32.1 7 72.3 23.2-24.7-10.2 53.7 22.7 14.1-93.4 99.9z"
          fill="#89D86F" p-id="6668"></path>
    <path d="M364.1 161.8l65.6 71.3 24.5 26.6 15-32.9 8.5-18.6 31.9 49.6 18.6 28.8 20.7-27.3 17.6-23.2 26.1 48 16.2 29.7 22.7-25.1 14.5-16 21.3 45.7 13.9 29.9 24.2-22.5 15.4-14.4 19.4 61 13 40.8 28-32.3 0.7-0.8 4 41.3 5.1 52.8 11-11.8-1.4 7.2 13.9 8.7 5.6 3.5-100.5 107.5L185.4 723l-71.8-171.2 1.6 0.4 40.3 11-10.8-40.4-17.3-64.8 13 3.9 34.2 10.3-3.4-35.6-5.4-56.9 35.2 7.9 31 7-1.8-31.8-2.9-51.5 31.1 11.7 32.8 12.3-0.3-35-0.5-56.8 26.4 19.3 33.4 24.4 4.6-41.2 9.3-84.2m-18.1-55l-15.2 137-65-47.4 1 104.6-65.6-24.6 4.9 88.2-67.5-15.2 8.6 89.9L93 423l28.4 106.4L72.3 516l98.9 235.6 561-140.4L857.5 477l-30.4-18.9 13.6-72-31.1 33.1-9.4-97-37.3 43-30.8-97.1-43.2 40.2-36.5-78.5-38.7 42.8-43.8-80.6-40 52.8-55.7-86.5-26.7 58.5-101.5-110z"
          fill="#66584F" p-id="6669"></path>
    <path d="M926.9 543.3c2.6 15.5-2 31.2-13.7 46.7-2.2 2.9-4.4 5.8-6.5 8.7-14.4 19.2-29.2 39-45.1 54.9-16.7 16.6-32.2 26.6-48.8 31.6-1 0.3-2.1 0.6-3.1 0.9-2.4 0.6-5 1-7.5 1.1 22.8-20.1 42-46.7 61.1-72 38.2-50.4 6.4-91 6.4-91C745.6 371.3 569.4 342 428.1 356.5c17.4-2.9 35-5.1 52.5-6.5 51.4-4.2 101.7-2.1 149.6 6.1 54.9 9.5 106 27.1 152.1 52.4 51.9 28.5 98 67.1 136.8 114.8 0.9 1.3 5.9 8.9 7.8 20z"
          fill="#FFB5AB" p-id="6670"></path>
    <path d="M863.3 615.2c-19.1 25.2-38.3 51.9-61.1 72-12.8 0.6-26.6-4.7-36.7-9.7-11.5-5.8-20.5-12.4-24.2-15.2-3.9-4.7-12-13.5-25.2-22-22.9-14.9-51-22.5-81.4-22.2-16.7 0.2-31.6 2.3-45.7 6.5-38.7 11.6-63.7 36.8-92.5 66-4.9 5-10 10.1-15.4 15.4-16.5 16.3-36.6 28.5-56.6 34.5-21.3 6.4-41.5 5.8-60-1.8-21.6-8.9-40.3-27.2-55.6-54.4-0.9-1.6-29.2-53.1-49.9-112.6-12-34.5-19-64.7-20.8-89.6-2-27.2 2.2-47.1 12.4-59 10.4-12.1 46.8-32.7 102.3-49.3 23.9-7.1 49.3-13 75.2-17.2 141.3-14.6 317.5 14.8 441.6 167.7 0 0 31.8 40.5-6.4 90.9z"
          fill="#FF855F" p-id="6671"></path>
    <path d="M524.4 354.1c-7.4-0.4-14.8-0.7-22.1-0.8-2.5-1.6-4.8-3-7-4.3 7.1-0.4 14.1-0.7 21.1-0.9 2.5 1.9 5.2 3.8 8 6zM646.8 374.9c-5.5-1.6-11-3.2-16.4-4.6-3.6-5.9-7.3-11.2-10.9-15.9 3.6 0.5 7.2 1.1 10.7 1.7 2 0.4 4.1 0.7 6.1 1.1 3.6 5.4 7.1 11.3 10.5 17.7zM742.6 389.2c2.3 8.9 4.3 18.8 5.6 29.7-4.4-2.6-8.8-5.1-13.2-7.5-1.7-10.5-4.1-19.9-6.7-28.1 4.8 2 9.6 3.9 14.3 5.9zM842.1 447.9c-0.8 11.3-2.7 23.3-6 35.8-0.2 0.9-0.5 1.7-0.7 2.6-3.3-3.3-6.6-6.4-9.9-9.5 3.3-13.2 4.7-25.9 5.1-37.6 3.8 2.8 7.7 5.7 11.5 8.7zM922.3 528.8c-4.1 9.4-9.1 19.2-15.5 29-9 13.9-19.5 26.5-31.7 37.8 3.9-8.6 5.9-16.7 6.6-24.2 5.4-6.3 10.4-13 14.9-20.1 7.5-11.6 13.1-23.2 17.3-34.1 1.7 2 3.4 4.1 5.1 6.2 0.5 0.5 1.8 2.4 3.3 5.4z"
          fill="#FFCAC7" p-id="6672"></path>
    <path d="M480.1 707.1c-2.3 2.2-4.7 4.4-7.1 6.5l-2 1.4c-28.6-36.8-67.8-55.7-116.3-56.1-23.7-0.2-43.9 4.2-55.2 7.4-1.6-3.3-3.5-6.9-5.4-10.9 11.6-3.4 33.9-8.7 60.7-8.4 51.4 0.4 94.7 21.2 125.3 60.1z"
          fill="#FFBEB3" p-id="6673"></path>
    <path d="M500.3 686.8c-1.2 1.3-2.5 2.5-3.8 3.8-1.7 1.7-3.3 3.4-5 5.1-18.1-32.2-41.4-58.1-69.2-77.1-23.3-15.9-49.8-27-78.9-33.1-35.2-7.3-65.7-5.3-80.7-3.5-1.3-3.4-2.5-6.9-3.7-10.4-0.1-0.4-0.3-0.8-0.4-1.2 14.8-2 47.7-4.8 86.8 3.2 30.7 6.3 58.8 18 83.4 34.8 28.6 19.6 52.6 45.9 71.5 78.4z"
          fill="#FFBEB3" p-id="6674"></path>
    <path d="M517.8 669.6c-2.6 2.5-5.3 5.1-7.9 7.7l-1.6 0.6c-20.2-48.7-47.3-88.5-80.6-118.2-26.6-23.7-57.1-41.1-90.9-51.8-43.6-13.8-81.2-12.6-97-11.2-0.6-4.1-1-8.1-1.4-12 16.7-1.6 55.9-2.8 102 11.8 35.4 11.2 67.4 29.5 95.2 54.3 33.8 30.1 61.5 70.1 82.2 118.8z"
          fill="#FFBEB3" p-id="6675"></path>
    <path d="M540.2 650.2c-3.4 2.6-6.7 5.3-10 8.2-19.8-64.8-46.3-117.8-78.7-157.4-26.6-32.6-57.2-56.3-91.1-70.4-57.3-24-104.2-12.3-104.7-12.2v-0.2c5.2-4.4 12.9-9.4 22.7-14.7 20.6-0.9 51.7 1.3 86.7 16 35.6 14.9 67.8 39.8 95.7 73.9 32.6 39.8 59.3 92.6 79.4 156.8z"
          fill="#FFBEB3" p-id="6676"></path>
    <path d="M561 636.5c-4 2.2-7.8 4.6-11.6 7.1-3.6-62.7-14.6-116.2-32.5-158.9-14.8-35.1-34.4-63.2-58.2-83.5-28.3-24-57.2-32.5-76.7-35.3 9-2.2 18.1-4.2 27.3-6 17.3 5.6 37.3 15.4 57.1 32.1 25.3 21.5 46 51.1 61.5 88 17.9 42.5 29 95.1 33.1 156.5z"
          fill="#FFBEB3" p-id="6677"></path>
    <path d="M602.8 495.5c4.2 39.3-1.4 83-16.6 130-5.1 1.6-9.9 3.5-14.5 5.6 17-49 23.4-94.1 19.2-134.4-3.7-34.8-15.3-66-34.6-92.8-17.6-24.4-38.3-40.7-53.9-50.6 7.3 0.1 14.7 0.4 22.1 0.8 13.4 10.4 28.3 24.4 41.5 42.8 20.5 28.5 32.9 61.7 36.8 98.6zM666.6 503.8c-5.6 36.6-19.9 75.1-42.5 114.7-5.1 0.3-10 0.9-14.8 1.6 24.5-41 39.8-80.7 45.5-118.2 5.3-34.5 2.6-67.2-8-97.2-4.6-13.1-10.4-24.6-16.4-34.4 5.5 1.4 11 3 16.4 4.6 4.1 7.8 7.9 16.4 11.2 25.8 11.3 32 14.2 66.6 8.6 103.1zM748.2 418.9c1 9 1.5 18.7 1.2 28.9-1 35.1-11.4 69-30.7 100.7-15.3 25-36.3 48.7-62.7 70.7-5.8-0.7-11.7-1.1-17.7-1.1 30.1-23.4 53.5-48.7 70-75.5 18.3-29.8 28.1-61.6 29.2-94.5 0.4-13.1-0.6-25.4-2.4-36.6 4.3 2.4 8.7 4.8 13.1 7.4zM835.4 486.3c-9.1 31.9-26.7 60.9-52.2 86.3-22.3 22.2-50.8 41.6-85.1 58-5.1-2.3-10.4-4.2-15.9-5.9 37.9-16.8 69-37.1 92.6-60.6 24.7-24.5 41.4-52.6 49.7-83.4 0.3-1.3 0.7-2.6 1-3.8 3.3 3 6.6 6.1 9.9 9.4zM881.8 571.4c-0.7 7.5-2.8 15.6-6.6 24.2-13.6 12.6-29.2 23.5-46.6 32.6-14.1 7.3-29.4 13.5-45.8 18.4-14.6 4.4-30 7.8-46.3 10.2-3-3.1-6.9-6.7-11.8-10.5 37.6-4.6 70.6-14.2 98.4-28.7 23.1-12.1 42.7-27.6 58.7-46.2z"
          fill="#FFBEB3" p-id="6678"></path>
    <path d="M352.9 373.8c39.9-11.9 84.1-20.1 127.7-23.7 51.4-4.2 101.7-2.1 149.6 6.1 54.9 9.5 106 27.1 152.1 52.4 51.9 28.5 98 67.1 136.8 114.8 0.8 1.2 5.9 8.8 7.8 19.9 2.6 15.5-2 31.2-13.7 46.7-2.2 2.9-4.4 5.8-6.5 8.7-14.4 19.2-29.2 39-45.1 54.9-16.7 16.6-32.2 26.6-48.8 31.6-1 0.3-2.1 0.6-3.1 0.9-14.7 3.8-32.1-2.6-44.2-8.6-11.5-5.8-20.5-12.4-24.2-15.2-3.9-4.7-12-13.5-25.2-22-22.9-14.9-51-22.5-81.4-22.2-16.7 0.2-31.6 2.3-45.7 6.5-38.7 11.6-63.7 36.8-92.5 66-4.9 5-10 10.1-15.4 15.4-16.5 16.3-36.6 28.5-56.6 34.5-21.3 6.4-41.5 5.8-60-1.8-21.6-8.9-40.3-27.2-55.6-54.4-0.9-1.6-29.2-53.1-49.9-112.6-12-34.5-19-64.6-20.8-89.6-2-27.2 2.2-47.1 12.4-59 10.4-12.2 46.9-32.8 102.3-49.3z m-6.8-23c-57.3 17.1-98.8 39.3-113.7 56.7C168.8 481.7 288 696 288 696c38.3 68.3 93.8 82.4 143.4 67.6 24.6-7.4 47.8-21.9 66.6-40.4 35.7-35.2 59.2-63.9 98-75.5 11.5-3.4 24.3-5.4 39.1-5.5 62.6-0.7 89.1 37.1 89.1 37.1s48.5 41.2 91.6 30.1c1.3-0.3 2.7-0.7 4-1.1 48.5-14.5 80.7-61.1 112.8-103.8 39.6-52.7 5.7-95.8 5.7-95.8C764.5 295.3 499 305 346.1 350.8z"
          fill="#66584F" p-id="6679"></path>
    <path d="M831.4 628.2c2.3 15.5-2.7 31.1-14.7 46.4-2.2 2.8-4.5 5.7-6.7 8.6-14.8 18.9-30.1 38.4-46.3 53.9-17 16.2-32.8 25.9-49.5 30.5-1 0.3-2.1 0.6-3.1 0.8-2.5 0.6-5 0.9-7.5 0.9 23.3-19.5 43-45.8 62.7-70.6 39.3-49.5 8.4-90.8 8.4-90.8-120.8-155.7-296.2-189-437.9-177.5 17.4-2.5 35.1-4.3 52.6-5.3 51.5-3.1 101.8 0.1 149.4 9.5 54.6 10.7 105.4 29.5 150.9 55.8C741 520 786.1 559.7 824 608.2c0.8 1.1 5.7 8.8 7.4 20z"
          fill="#FFB5AB" p-id="6680"></path>
    <path d="M766.2 698.7c-19.7 24.8-39.5 51.1-62.7 70.6-12.8 0.3-26.5-5.3-36.4-10.5-11.4-6-20.3-12.9-23.8-15.8-3.8-4.8-11.7-13.7-24.7-22.6-22.5-15.4-50.5-23.7-80.8-24-16.7-0.2-31.7 1.6-45.8 5.5-39 10.7-64.5 35.4-94 63.9-5 4.9-10.3 9.9-15.7 15.1-16.9 15.9-37.2 27.7-57.4 33.2-21.4 5.9-41.6 4.8-59.9-3.2-21.4-9.4-39.7-28.1-54.4-55.7-0.9-1.7-28-53.7-47.4-113.7-11.2-34.8-17.6-65.1-18.8-90-1.4-27.3 3.2-47 13.7-58.7 10.6-11.9 47.6-31.7 103.4-47 24-6.6 49.6-11.9 75.5-15.5 141.6-11.4 317.1 21.9 437.8 177.5-0.2 0.1 30.7 41.3-8.6 90.9z"
          fill="#FF855F" p-id="6681"></path>
    <path d="M433.2 430c-7.4-0.6-14.8-1-22.1-1.3-2.4-1.6-4.8-3.1-6.9-4.4 7.1-0.3 14.1-0.4 21.1-0.4 2.5 1.9 5.2 3.9 7.9 6.1zM555.1 453.6c-5.4-1.8-10.9-3.4-16.3-5-3.5-6-7.1-11.4-10.5-16.1 3.6 0.6 7.1 1.3 10.7 2 2 0.4 4 0.8 6.1 1.2 3.3 5.5 6.7 11.4 10 17.9zM650.5 470c2.1 8.9 3.9 18.9 4.9 29.8-4.3-2.7-8.7-5.3-13-7.8-1.5-10.5-3.6-20-6-28.2 4.7 2 9.5 4.1 14.1 6.2zM748.7 530.9c-1.1 11.3-3.2 23.3-6.8 35.7-0.3 0.9-0.5 1.7-0.8 2.5-3.2-3.3-6.4-6.6-9.7-9.7 3.5-13.2 5.3-25.8 5.9-37.4 3.9 2.9 7.7 5.9 11.4 8.9zM827 613.6c-4.3 9.3-9.6 18.9-16.1 28.6-9.3 13.7-20.1 26.1-32.5 37.1 4.1-8.5 6.2-16.6 7.2-24 5.6-6.2 10.7-12.8 15.4-19.7 7.7-11.4 13.6-22.9 18.1-33.7 1.7 2.1 3.3 4.2 5 6.3 0.3 0.4 1.5 2.4 2.9 5.4z"
          fill="#FFCAC7" p-id="6682"></path>
    <path d="M381 782c-2.4 2.2-4.8 4.3-7.3 6.3l-1.9 1.4c-27.8-37.4-66.5-57.2-115-58.7-23.7-0.7-44 3.2-55.3 6.1-1.6-3.3-3.3-7-5.2-11.1 11.7-3.2 34.1-7.9 60.9-7.1 51.3 1.7 94.1 23.5 123.8 63.1z"
          fill="#FFBEB3" p-id="6683"></path>
    <path d="M401.6 762.1c-1.3 1.2-2.5 2.5-3.8 3.7-1.7 1.6-3.4 3.3-5.1 4.9-17.4-32.6-40.1-59-67.4-78.6-22.9-16.4-49.2-28.1-78.1-34.8-35-8.1-65.6-6.8-80.6-5.3-1.2-3.5-2.4-7-3.5-10.5-0.1-0.4-0.3-0.8-0.4-1.2 14.8-1.7 47.8-3.8 86.7 5.1 30.5 7 58.3 19.3 82.6 36.7 28.1 20.2 51.5 47.1 69.6 80z"
          fill="#FFBEB3" p-id="6684"></path>
    <path d="M419.5 745.3l-8.1 7.5-1.6 0.6c-19.1-49.2-45.3-89.5-78-120-26-24.3-56.2-42.4-89.7-53.8-43.3-14.8-80.9-14.5-96.7-13.4-0.5-4.1-0.9-8.1-1.1-12 16.7-1.2 55.9-1.6 101.7 14 35.1 12 66.7 31 94 56.4 33.2 31 59.9 71.6 79.5 120.7z"
          fill="#FFBEB3" p-id="6685"></path>
    <path d="M442.4 726.4c-3.5 2.5-6.9 5.2-10.2 7.9-18.4-65.3-43.7-118.8-75.1-159.1-25.9-33.1-56-57.5-89.5-72.5-56.7-25.3-103.9-14.6-104.4-14.5v-0.2c5.3-4.2 13.1-9.1 23-14.2 20.6-0.4 51.6 2.5 86.3 17.9 35.3 15.7 66.9 41.3 94 76 31.7 40.7 57.2 94.1 75.9 158.7z"
          fill="#FFBEB3" p-id="6686"></path>
    <path d="M463.5 713.2c-4 2.1-7.9 4.4-11.7 6.8-2.2-62.8-12-116.5-29-159.6-14-35.4-33-64-56.4-84.8-27.8-24.7-56.5-33.7-75.9-37 9-2 18.2-3.8 27.5-5.4 17.2 6 37 16.2 56.3 33.4 24.8 22.1 44.9 52.1 59.6 89.3 16.9 43 26.9 95.8 29.6 157.3z"
          fill="#FFBEB3" p-id="6687"></path>
    <path d="M508.3 573.2c3.3 39.4-3.3 82.9-19.5 129.6-5.1 1.5-9.9 3.3-14.6 5.3 18.1-48.6 25.5-93.6 22.1-133.9-2.9-34.9-13.9-66.4-32.5-93.6-17-24.8-37.4-41.6-52.8-51.8 7.3 0.3 14.7 0.7 22.1 1.3 13.2 10.6 27.7 25 40.6 43.7 19.9 28.9 31.6 62.4 34.6 99.4zM572 582.9c-6.5 36.5-21.6 74.6-45.1 113.8-5.1 0.2-10 0.6-14.9 1.3 25.4-40.5 41.5-79.8 48.1-117.1 6.1-34.3 4.1-67.1-5.8-97.4-4.3-13.2-9.8-24.8-15.6-34.7 5.4 1.6 10.9 3.2 16.3 5 3.9 7.9 7.6 16.5 10.7 26 10.6 32 12.7 66.8 6.3 103.1zM655.4 499.9c0.8 9.1 1.1 18.7 0.6 28.9-1.8 35.1-12.9 68.7-32.9 99.9-15.9 24.7-37.4 47.9-64.2 69.3-5.8-0.8-11.7-1.3-17.7-1.5 30.6-22.7 54.6-47.5 71.6-74 18.9-29.4 29.4-60.9 31.2-93.9 0.7-13.1 0-25.4-1.6-36.6 4.4 2.6 8.7 5.2 13 7.9zM741.1 569.1c-9.8 31.7-28 60.3-54.1 85.1-22.8 21.7-51.7 40.4-86.4 56-5.1-2.4-10.3-4.5-15.7-6.2 38.3-16 69.8-35.6 93.9-58.5 25.2-23.9 42.6-51.6 51.6-82.3 0.4-1.3 0.7-2.5 1.1-3.8 3.2 3.2 6.4 6.4 9.6 9.7zM785.6 655.2c-0.9 7.5-3.1 15.5-7.2 24-13.9 12.3-29.7 22.9-47.3 31.6-14.2 7-29.7 12.8-46.2 17.4-14.6 4-30.2 7.1-46.5 9.2-2.9-3.1-6.7-6.9-11.6-10.8 37.7-3.8 70.9-12.6 99-26.5 23.4-11.6 43.5-26.6 59.8-44.9z"
          fill="#FFBEB3" p-id="6688"></path>
    <path d="M261.3 445.9c40.2-11 84.5-18.3 128.2-20.8 51.5-3.1 101.8 0.1 149.4 9.5 54.6 10.7 105.4 29.5 150.9 55.8 51.3 29.6 96.4 69.3 134.3 117.8 0.8 1.2 5.7 8.9 7.3 20.1 2.3 15.5-2.7 31.1-14.7 46.4-2.2 2.8-4.5 5.7-6.7 8.6-14.8 18.9-30.1 38.4-46.3 53.9-17 16.2-32.8 25.9-49.5 30.5-1 0.3-2.1 0.5-3.1 0.8-14.8 3.5-32.1-3.3-44-9.6-11.4-6-20.2-12.8-23.8-15.7-3.8-4.8-11.7-13.7-24.7-22.6-22.5-15.4-50.5-23.7-80.8-24-16.7-0.2-31.7 1.6-45.8 5.5-39 10.7-64.5 35.4-94 63.9-5 4.9-10.3 9.9-15.7 15.1-16.9 15.9-37.2 27.7-57.4 33.2-21.4 5.9-41.6 4.8-59.9-3.2-21.4-9.4-39.7-28.1-54.4-55.7-0.9-1.7-28-53.7-47.4-113.7-11.2-34.8-17.6-65.1-18.8-90-1.4-27.3 3.2-47 13.7-58.7 10.5-12 47.4-31.8 103.2-47.1z m-6.4-23.2c-57.7 15.9-99.6 37.1-114.9 54.2-65.2 72.8 49.2 289.7 49.2 289.7 36.7 69.1 92 84.5 141.9 70.7 24.8-6.8 48.2-20.8 67.5-38.9 36.5-34.4 60.6-62.6 99.6-73.3 11.5-3.2 24.4-4.8 39.2-4.7 62.6 0.7 88.2 39.1 88.2 39.1s47.6 42.3 90.9 32.2c1.3-0.3 2.7-0.7 4-1 48.9-13.4 82-59.3 115-101.2 40.8-51.8 7.8-95.7 7.8-95.7-168.8-217.2-434.5-213.4-588.4-171.1z"
          fill="#66584F" p-id="6689"></path>
    <path d="M753.8 790c-1.9 15.6-10.9 29.3-26.5 40.9-2.9 2.1-5.8 4.3-8.8 6.5-19.2 14.3-39.2 29-58.9 39.6-20.7 11.1-38.5 16.3-55.8 16.3-1.1 0-2.2 0-3.2-0.1-2.5-0.1-5-0.5-7.5-1.1 27.6-12.7 53.6-32.8 79.2-51.5 51.1-37.3 32.2-85.3 32.2-85.3-75.1-182.1-235.5-260.7-375-287.2 17.5 2.2 35 5.2 52.1 8.8 50.4 10.7 98.1 27.1 141.6 48.7 49.8 24.8 93.8 56.3 130.7 93.8 41.6 42.2 74.6 92.4 98.2 149.2 0.4 1.4 3.1 10.1 1.7 21.4z"
          fill="#FFB5AB" p-id="6690"></path>
    <path d="M672.2 840.6c-25.6 18.7-51.6 38.8-79.2 51.5-12.5-3.1-24.2-12.1-32.3-19.8-9.4-8.8-16.1-17.8-18.8-21.5-2.3-5.6-7.6-16.3-17.8-28.3-17.7-20.8-42.4-36.2-71.6-44.6-16-4.6-31-6.8-45.6-6.8-40.4 0-71.5 17-107.6 36.7-6.2 3.4-12.5 6.8-19.2 10.4C259.6 829 236.8 835 216 835c-22.2 0-41.4-6.4-56.9-18.9-18.2-14.7-30.9-37.6-37.7-68.1-0.4-1.8-12.8-59.2-15.6-122.2-1.6-36.5 0.3-67.4 5.7-91.8 5.9-26.7 15.6-44.5 28.8-53 13.4-8.6 54.2-17.9 112.2-17.9 24.9 0 50.9 1.7 77 5 139.6 26.5 300 105.1 375 287.2-0.1 0 18.8 48-32.3 85.3z"
          fill="#FF855F" p-id="6691"></path>
    <path d="M515.6 813.4c-16.8-16.2-38.3-28.4-63.1-35.5-16-4.6-31-6.8-45.6-6.8-40.4 0-71.5 17-107.6 36.7-6.2 3.4-12.5 6.8-19.2 10.4C259.6 829 236.8 835 216 835c-22.2 0-41.4-6.4-56.9-18.9-18.2-14.7-30.9-37.6-37.7-68.1-0.1-0.6-1.8-8.5-4.1-21.2 31.2 80.8 120.7 85.7 182.8 55.9 56.2-27.1 92.5-41.9 151-21.9 37.1 12.7 56.4 38.8 64.5 52.6z"
          fill="#EA6642" p-id="6692"></path>
    <path d="M422.3 493.3c-7-2.5-14-4.9-21-7.1-1.9-2.2-3.8-4.3-5.5-6.1 6.9 1.6 13.7 3.4 20.5 5.2 2 2.5 4 5.2 6 8zM533.6 548.4c-4.8-3.1-9.6-6.2-14.4-9.1-1.8-6.7-3.8-12.8-5.9-18.3 3.3 1.6 6.5 3.1 9.8 4.8 1.8 0.9 3.7 1.9 5.5 2.8 1.9 6 3.6 12.6 5 19.8zM621.3 589.5c-0.3 9.2-1.2 19.3-3.2 30.1-3.5-3.7-7-7.4-10.5-10.9 1.4-10.5 1.8-20.3 1.7-28.8 4.1 3.1 8.1 6.3 12 9.6zM699.8 674.2c-4 10.6-9.2 21.6-16 32.6-0.5 0.8-0.9 1.5-1.4 2.2-2.2-4.1-4.5-8-6.8-11.9 6.9-11.8 12-23.5 15.6-34.5 3 3.8 5.8 7.7 8.6 11.6zM753.4 774.7c-6.6 7.8-14.2 15.7-23.1 23.3-12.6 10.8-26.3 19.8-41.1 27.1 6.2-7.1 10.4-14.3 13.3-21.3 7-4.5 13.7-9.5 20.1-15 10.5-9 19.2-18.5 26.3-27.7 1.1 2.4 2.1 4.9 3.1 7.4 0.2 0.7 0.9 2.9 1.4 6.2z"
          fill="#FFCAC7" p-id="6693"></path>
    <path d="M278.7 818.8c-2.9 1.5-5.8 2.9-8.7 4.2h-0.1l-2.2 0.8c-16.9-43.4-49-72.8-95.4-87.1-22.6-7-43.3-8.5-55-8.8-0.6-3.6-1.3-7.6-2-12 12.1 0 35 1.4 60.6 9.3 49.2 15.3 84.7 47.6 102.8 93.6z"
          fill="#FFBEB3" p-id="6694"></path>
    <path d="M303.9 805.2c-1.5 0.9-3.1 1.7-4.7 2.6-2.1 1.1-4.1 2.3-6.2 3.4-8.2-36-23-67.5-44.2-93.7-17.8-21.9-40-40.2-66.1-54.3-31.6-17.1-61.4-23.9-76.3-26.4-0.2-3.7-0.4-7.3-0.6-11v-1.2c14.7 2.3 47.1 9.1 82.2 27.9 27.6 14.8 51.1 34.1 70 57.3 21.7 26.7 37.2 58.8 45.9 95.4z"
          fill="#FFBEB3" p-id="6695"></path>
    <path d="M325.6 793.7c-3.2 1.6-6.5 3.4-9.8 5.1l-1.7 0.2c-5.4-52.5-20-98.3-43.4-136.4-18.7-30.3-43-55.8-72.2-75.7-37.8-25.7-74.2-35.4-89.7-38.6 0.6-4.1 1.3-8 2.1-11.8 16.5 3.3 54.3 13.3 94.3 40.5 30.7 20.9 56.1 47.5 75.7 79.3 23.8 38.6 38.8 84.8 44.7 137.4z"
          fill="#FFBEB3" p-id="6696"></path>
    <path d="M352.7 781.6c-4 1.5-8 3.2-12 4.9-0.4-67.8-10.6-126.1-30.3-173.3-16.2-38.8-38.7-70.3-67.1-93.6-48-39.4-96.3-41.6-96.8-41.7v-0.2c6.2-2.7 15-5.3 26-7.6 20 5.1 49.1 16.1 78.4 40.1 29.9 24.5 53.6 57.6 70.5 98.2 19.9 47.7 30.4 105.8 31.3 173.2z"
          fill="#FFBEB3" p-id="6697"></path>
    <path d="M376.5 774.4c-4.5 1-8.8 2.1-13.1 3.5 14.5-61.1 19.3-115.5 14.3-161.5-4.1-37.9-14.8-70.4-31.9-96.7-20.2-31.1-45.5-47.5-63.3-55.8 9.2 0.5 18.5 1.2 27.9 2.1 15 10.4 31.3 25.4 45.5 47.1C374 541 385.3 575.2 389.6 615c5 45.8 0.6 99.4-13.1 159.4z"
          fill="#FFBEB3" p-id="6698"></path>
    <path d="M456.9 651.3c-7.3 38.9-25.1 79.1-53.1 119.8-5.3 0.1-10.5 0.5-15.5 1.2 30.3-42.1 49.4-83.5 56.8-123.2 6.5-34.4 4.2-67.7-6.6-98.9-9.8-28.4-25.1-50-37.2-63.9 7 2.2 14 4.6 21 7.1 9.9 13.8 20.1 31.5 27.5 52.9 11.6 33.2 13.9 68.5 7.1 105zM515.7 677.5c-15.9 33.5-40.6 66.2-73.6 97.7-5-1.1-9.9-2-14.7-2.7 35.2-32.3 61.2-65.9 77.5-100.2 15-31.5 21.8-63.6 20.2-95.4-0.7-13.9-2.9-26.5-5.8-37.6 4.8 2.9 9.7 6 14.4 9.1 1.7 8.6 2.9 18 3.4 27.9 1.6 33.8-5.6 67.9-21.4 101.2zM618.1 619.6c-1.6 8.9-3.9 18.3-7.1 28-11.1 33.4-30.7 62.8-58.3 87.6-21.8 19.6-48.7 36.3-80.3 49.8-5.4-2.3-10.9-4.4-16.7-6.1 35.5-13.8 65.2-31.3 88.7-52.3 26-23.3 44.5-51 55-82.2 4.2-12.5 6.7-24.5 8.2-35.7 3.6 3.5 7.1 7.1 10.5 10.9zM682.4 709.1c-17.9 28-43 50.8-74.7 67.7-27.7 14.8-60.6 25.3-98.2 31.1-4.2-3.6-8.8-7-13.5-10.2 41.1-5.3 76.7-15.8 106-31.5 30.7-16.4 54.7-38.5 71.6-65.7 0.7-1.1 1.4-2.2 2-3.4 2.3 3.9 4.6 7.9 6.8 12zM702.5 803.9c-2.9 6.9-7.1 14.2-13.3 21.3-16.7 8.2-34.7 14.2-54 17.9-15.6 3-32 4.5-49.2 4.5-15.2 0-31-1.2-47.3-3.5-2-3.8-4.7-8.4-8.3-13.4 37.3 6.4 71.7 6.6 102.5 0.7 25.7-5 49-14.2 69.6-27.5z"
          fill="#FFBEB3" p-id="6699"></path>
    <path d="M278.7 818.8c-2.9 1.5-5.8 2.9-8.8 4.2l-2.2 0.8c-3.7-9.6-8.2-18.5-13.4-26.7 4.2-0.7 8.3-1.6 12.4-2.6 4.7 7.7 8.7 15.7 12 24.3zM303.9 805.2c-1.5 0.9-3.1 1.7-4.7 2.6-2.1 1.1-4.1 2.3-6.2 3.4-1.8-7.8-3.9-15.4-6.2-22.8 3.8-1.4 7.5-3 11.1-4.7 2.2 7 4.3 14.2 6 21.5zM325.6 793.7c-3.2 1.6-6.5 3.4-9.8 5.1l-1.7 0.2c-0.8-7.4-1.7-14.6-2.8-21.7 3.9-1.8 7.6-3.6 11.3-5.2 1.2 7.1 2.2 14.3 3 21.6zM352.7 781.6c-4 1.5-8 3.2-12 4.9 0-7.4-0.2-14.7-0.5-21.9 4-1.6 7.9-3.1 11.8-4.4 0.4 7 0.6 14.1 0.7 21.4zM381 753c-1.4 7-2.9 14.2-4.5 21.4-4.5 1-8.8 2.1-13.1 3.5 1.8-7.6 3.4-15 4.9-22.4 4.2-1.1 8.5-1.9 12.7-2.5zM415.9 752.4c-3.8 6.2-7.9 12.4-12.1 18.7-5.3 0.1-10.5 0.5-15.5 1.2 5-6.9 9.7-13.9 14.1-20.8 4.4 0.1 8.9 0.4 13.5 0.9zM455.1 762.2c-4.2 4.4-8.5 8.7-13.1 13-5-1.1-9.9-2-14.7-2.7 5.2-4.8 10.3-9.6 15.1-14.5 2.9 0.8 5.7 1.8 8.7 2.8 1.4 0.4 2.7 0.9 4 1.4zM485.4 779.2c-4.2 2-8.5 4-13 5.9-5.4-2.3-10.9-4.4-16.7-6.1 6.2-2.4 12.2-4.9 18.1-7.6 4.2 2.4 8.1 5 11.6 7.8zM511.9 807.5c-0.8 0.1-1.6 0.3-2.4 0.4-4.2-3.6-8.8-7-13.5-10.2 2.6-0.3 5.2-0.7 7.7-1.1 3.3 3.9 6 7.6 8.2 10.9z"
          fill="#F9A195" p-id="6700"></path>
    <path d="M252.4 463.1c41.7 0 86.3 4.8 129.1 13.9 50.4 10.7 98.1 27.1 141.6 48.7 49.8 24.8 93.8 56.3 130.7 93.7 41.6 42.2 74.6 92.4 98.2 149.2 0.4 1.3 3.1 10.1 1.7 21.3-1.9 15.6-10.9 29.3-26.5 40.9-2.9 2.1-5.8 4.3-8.8 6.5-19.2 14.3-39.1 29-58.9 39.7-20.7 11.1-38.5 16.3-55.8 16.3-1.1 0-2.1 0-3.2-0.1-15.2-0.6-30.1-11.7-39.9-20.9-9.4-8.8-16.1-17.8-18.8-21.5-2.4-5.6-7.7-16.3-17.8-28.3-17.7-20.8-42.4-36.2-71.6-44.6-16-4.6-31-6.8-45.7-6.8-40.4 0-71.5 17-107.6 36.7-6.2 3.4-12.5 6.8-19.1 10.4-20.4 10.8-43.2 16.8-64 16.8-22.2 0-41.4-6.4-56.9-18.9-18.2-14.7-30.9-37.6-37.7-68.1-0.4-1.8-12.8-59.2-15.6-122.2-1.6-36.5 0.3-67.4 5.7-91.8 5.9-26.6 15.6-44.5 28.8-53 13.4-8.6 54.2-17.9 112.1-17.9z m0-24c-59.8 0-105.9 9.4-125.2 21.8-82.1 52.9-29.4 292.3-29.4 292.3C115 829.5 164.2 859 216 859c25.7 0 52-7.3 75.4-19.6 44.3-23.5 75-44.3 115.5-44.3 12 0 24.8 1.8 39 5.9 60.2 17.3 74.7 61.1 74.7 61.1s34.7 53.4 79.1 55.1c1.4 0.1 2.8 0.1 4.1 0.1 50.7 0 94.8-35.5 137.8-67.1 53.1-39.1 32.9-90.2 32.9-90.2C669.2 505.8 412 439.1 252.4 439.1z"
          fill="#66584F" p-id="6701"></path>
</svg>