<?xml version="1.0" standalone="no"?><!DOCTYPE svg PUBLIC "-//W3C//DTD SVG 1.1//EN" "http://www.w3.org/Graphics/SVG/1.1/DTD/svg11.dtd"><svg t="1740473046639" class="icon" viewBox="0 0 1024 1024" version="1.1" xmlns="http://www.w3.org/2000/svg" p-id="54742" xmlns:xlink="http://www.w3.org/1999/xlink" width="200" height="200"><path d="M927.141888 336.6144c-22.693888-53.655552-55.17824-101.837824-96.54784-143.208448-41.3696-41.370624-89.552896-73.853952-143.208448-96.54784C631.822336 73.356288 572.814336 61.44 512 61.44S392.177664 73.356288 336.6144 96.858112c-53.655552 22.693888-101.837824 55.177216-143.208448 96.54784-41.370624 41.3696-73.853952 89.552896-96.54784 143.208448C73.356288 392.177664 61.44 451.185664 61.44 512s11.916288 119.822336 35.418112 175.3856c22.693888 53.655552 55.177216 101.837824 96.54784 143.208448 41.3696 41.370624 89.552896 73.853952 143.208448 96.54784C392.177664 950.643712 451.185664 962.56 512 962.56c52.112384 0 103.197696-8.825856 151.835648-26.231808 47.004672-16.821248 90.672128-41.250816 129.78688-72.608768 11.030528-8.844288 12.80512-24.955904 3.960832-35.986432-8.844288-11.031552-24.95488-12.806144-35.986432-3.961856-34.67264 27.797504-73.368576 49.447936-115.012608 64.350208C603.497472 903.54176 558.216192 911.36 512 911.36c-53.924864 0-106.222592-10.555392-155.441152-31.373312-47.552512-20.113408-90.264576-48.912384-126.949376-85.597184-36.6848-36.6848-65.483776-79.396864-85.597184-126.949376C123.195392 618.222592 112.64 565.924864 112.64 512s10.555392-106.222592 31.373312-155.441152c20.113408-47.552512 48.912384-90.264576 85.597184-126.949376 36.6848-36.6848 79.396864-65.483776 126.949376-85.597184C405.777408 123.195392 458.075136 112.64 512 112.64s106.222592 10.555392 155.441152 31.373312c47.552512 20.113408 90.264576 48.912384 126.949376 85.597184 36.6848 36.6848 65.483776 79.396864 85.597184 126.949376C900.803584 405.777408 911.36 458.075136 911.36 512c0 76.183552-21.520384 150.249472-62.232576 214.188032-7.593984 11.925504-4.081664 27.7504 7.84384 35.344384 11.925504 7.59296 27.751424 4.082688 35.344384-7.84384C938.269696 681.517056 962.56 597.943296 962.56 512c0-60.814336-11.916288-119.822336-35.418112-175.3856z" p-id="54743" fill="#515151"></path><path d="M655.36 256H368.64c-14.138368 0-25.6 11.461632-25.6 25.6s11.461632 25.6 25.6 25.6h286.72c14.138368 0 25.6-11.461632 25.6-25.6s-11.461632-25.6-25.6-25.6zM512 798.72c14.138368 0 25.6-11.461632 25.6-25.6V424.59648l99.656704 99.657728c9.998336 9.998336 26.208256 9.997312 36.20352 0 9.997312-9.997312 9.997312-26.206208 0-36.20352L566.305792 380.894208c-29.943808-29.943808-78.667776-29.943808-108.611584 0L350.537728 488.050688c-9.997312 9.997312-9.997312 26.206208 0 36.20352 4.999168 4.998144 11.549696 7.497728 18.102272 7.497728s13.103104-2.499584 18.102272-7.497728L486.4 424.59648V773.12c0 14.138368 11.461632 25.6 25.6 25.6z" p-id="54744" fill="#515151"></path></svg>